<svg width="1920" height="110" viewBox="0 0 1920 110" fill="none" xmlns="http://www.w3.org/2000/svg">
<rect width="1920" height="110" fill="#0D6EFD"/>
<path d="M275.613 20.54C276.759 20.54 277.666 20.6467 278.333 20.86C279.013 21.06 279.506 21.42 279.813 21.94C280.119 22.46 280.273 23.1933 280.273 24.14C280.273 25.1267 280.086 25.88 279.713 26.4C279.353 26.92 278.753 27.22 277.913 27.3V27.38C278.953 27.4733 279.673 27.8333 280.073 28.46C280.486 29.0867 280.693 29.9533 280.693 31.06C280.693 32.0067 280.539 32.74 280.233 33.26C279.939 33.78 279.466 34.1467 278.813 34.36C278.159 34.56 277.299 34.66 276.233 34.66C275.433 34.66 274.739 34.6533 274.153 34.64C273.566 34.64 273.026 34.6267 272.533 34.6C272.039 34.5733 271.526 34.54 270.993 34.5L271.273 32.96C271.579 32.9733 272.146 32.9867 272.973 33C273.813 33.0133 274.793 33.02 275.913 33.02C276.619 33.02 277.173 32.96 277.573 32.84C277.973 32.72 278.253 32.4933 278.413 32.16C278.586 31.8267 278.673 31.34 278.673 30.7C278.673 30.0067 278.586 29.48 278.413 29.12C278.239 28.7467 277.939 28.4867 277.513 28.34C277.099 28.18 276.526 28.0933 275.793 28.08H271.253V26.62H275.773C276.413 26.6067 276.919 26.54 277.293 26.42C277.666 26.3 277.933 26.08 278.093 25.76C278.253 25.4267 278.333 24.9667 278.333 24.38C278.333 23.78 278.246 23.32 278.073 23C277.899 22.68 277.606 22.4667 277.193 22.36C276.793 22.24 276.233 22.18 275.513 22.18C274.846 22.18 274.246 22.18 273.713 22.18C273.193 22.18 272.726 22.1867 272.313 22.2C271.913 22.2 271.566 22.2133 271.273 22.24L270.993 20.7C271.473 20.6467 271.926 20.6133 272.353 20.6C272.793 20.5733 273.273 20.56 273.793 20.56C274.313 20.5467 274.919 20.54 275.613 20.54ZM272.953 20.7V34.5H270.993V20.7H272.953ZM286.073 20.68C286.74 20.68 287.413 20.68 288.093 20.68C288.786 20.68 289.466 20.6933 290.133 20.72C290.813 20.7333 291.466 20.76 292.093 20.8L291.993 22.34H286.493C286.106 22.34 285.82 22.44 285.633 22.64C285.446 22.84 285.353 23.16 285.353 23.6V31.6C285.353 32.04 285.446 32.3667 285.633 32.58C285.82 32.78 286.106 32.88 286.493 32.88H291.993L292.093 34.4C291.466 34.44 290.813 34.4667 290.133 34.48C289.466 34.4933 288.786 34.5 288.093 34.5C287.413 34.5133 286.74 34.52 286.073 34.52C285.246 34.52 284.586 34.3 284.093 33.86C283.6 33.4067 283.353 32.8067 283.353 32.06V23.14C283.353 22.38 283.6 21.78 284.093 21.34C284.586 20.9 285.246 20.68 286.073 20.68ZM283.693 26.46H291.213V28H283.693V26.46ZM299.622 20.52C300.769 20.52 301.669 20.6467 302.322 20.9C302.975 21.1533 303.442 21.5933 303.722 22.22C304.015 22.8467 304.162 23.7333 304.162 24.88C304.162 26.0133 304.022 26.9 303.742 27.54C303.475 28.1667 303.022 28.6067 302.382 28.86C301.755 29.1 300.909 29.22 299.842 29.22C299.269 29.22 298.715 29.2067 298.182 29.18C297.662 29.1533 297.182 29.1133 296.742 29.06C296.302 29.0067 295.922 28.9533 295.602 28.9C295.295 28.8333 295.082 28.7733 294.962 28.72L295.022 27.56C295.742 27.56 296.489 27.56 297.262 27.56C298.049 27.56 298.822 27.56 299.582 27.56C300.222 27.5467 300.729 27.4667 301.102 27.32C301.475 27.1733 301.742 26.9067 301.902 26.52C302.062 26.1333 302.142 25.5867 302.142 24.88C302.142 24.16 302.062 23.6067 301.902 23.22C301.742 22.8333 301.475 22.5667 301.102 22.42C300.729 22.26 300.222 22.18 299.582 22.18C298.462 22.18 297.495 22.1867 296.682 22.2C295.882 22.2133 295.335 22.2333 295.042 22.26L294.762 20.7C295.282 20.6467 295.762 20.6067 296.202 20.58C296.655 20.5533 297.149 20.54 297.682 20.54C298.215 20.5267 298.862 20.52 299.622 20.52ZM296.762 20.7V34.5H294.762V20.7H296.762ZM317.216 20.7V34.5H315.296V24.78C315.296 24.5133 315.303 24.2467 315.316 23.98C315.329 23.7 315.356 23.4267 315.396 23.16H315.296C315.203 23.4267 315.089 23.6933 314.956 23.96C314.823 24.2267 314.689 24.48 314.556 24.72L308.696 34.5H306.676V20.7H308.616V30.3C308.616 30.58 308.603 30.8667 308.576 31.16C308.549 31.44 308.523 31.72 308.496 32H308.576C308.683 31.7333 308.803 31.4667 308.936 31.2C309.083 30.9333 309.229 30.68 309.376 30.44L315.176 20.7H317.216ZM327.162 21.5C328.509 21.5 329.649 21.6 330.582 21.8C331.529 21.9867 332.282 22.3133 332.842 22.78C333.416 23.2333 333.829 23.8467 334.082 24.62C334.349 25.38 334.482 26.3267 334.482 27.46C334.482 28.5667 334.349 29.5 334.082 30.26C333.829 31.0067 333.416 31.6067 332.842 32.06C332.282 32.5 331.529 32.82 330.582 33.02C329.649 33.2067 328.509 33.3 327.162 33.3C325.816 33.3 324.676 33.2067 323.742 33.02C322.809 32.82 322.056 32.5 321.482 32.06C320.909 31.6067 320.496 31.0067 320.242 30.26C319.989 29.5 319.862 28.5667 319.862 27.46C319.862 26.3267 319.989 25.38 320.242 24.62C320.496 23.8467 320.909 23.2333 321.482 22.78C322.056 22.3133 322.809 21.9867 323.742 21.8C324.676 21.6 325.816 21.5 327.162 21.5ZM327.162 23.12C326.149 23.12 325.302 23.1867 324.622 23.32C323.942 23.4533 323.402 23.68 323.002 24C322.616 24.32 322.336 24.76 322.162 25.32C321.989 25.88 321.902 26.5933 321.902 27.46C321.902 28.2867 321.989 28.9733 322.162 29.52C322.336 30.0667 322.616 30.5 323.002 30.82C323.402 31.14 323.942 31.3667 324.622 31.5C325.302 31.62 326.149 31.68 327.162 31.68C328.176 31.68 329.022 31.62 329.702 31.5C330.382 31.3667 330.922 31.14 331.322 30.82C331.722 30.5 332.009 30.0667 332.182 29.52C332.369 28.9733 332.462 28.2867 332.462 27.46C332.462 26.5933 332.369 25.88 332.182 25.32C332.009 24.76 331.722 24.32 331.322 24C330.922 23.68 330.382 23.4533 329.702 23.32C329.022 23.1867 328.176 23.12 327.162 23.12ZM328.162 19.6L328.182 22.18L328.082 22.6V32.16L328.182 32.62V35.2H326.182V32.62L326.242 32.16V22.6L326.182 22.18V19.6H328.162ZM347.665 20.7V34.5H345.745V24.78C345.745 24.5133 345.752 24.2467 345.765 23.98C345.779 23.7 345.805 23.4267 345.845 23.16H345.745C345.652 23.4267 345.539 23.6933 345.405 23.96C345.272 24.2267 345.139 24.48 345.005 24.72L339.145 34.5H337.125V20.7H339.065V30.3C339.065 30.58 339.052 30.8667 339.025 31.16C338.999 31.44 338.972 31.72 338.945 32H339.025C339.132 31.7333 339.252 31.4667 339.385 31.2C339.532 30.9333 339.679 30.68 339.825 30.44L345.625 20.7H347.665ZM360.572 20.7C360.292 21.4867 360.032 22.2133 359.792 22.88C359.565 23.5333 359.332 24.12 359.092 24.64C358.852 25.1467 358.592 25.5867 358.312 25.96C358.032 26.3333 357.712 26.6333 357.352 26.86C356.992 27.0733 356.565 27.2067 356.072 27.26V27.34C356.592 27.3933 357.045 27.5333 357.432 27.76C357.818 27.9733 358.158 28.28 358.452 28.68C358.758 29.0667 359.038 29.54 359.292 30.1C359.545 30.66 359.798 31.3133 360.052 32.06C360.318 32.7933 360.612 33.6067 360.932 34.5H358.832C358.458 33.4333 358.125 32.5 357.832 31.7C357.552 30.9 357.252 30.2333 356.932 29.7C356.625 29.1667 356.265 28.7667 355.852 28.5C355.438 28.22 354.918 28.08 354.292 28.08V26.54C354.878 26.54 355.372 26.4 355.772 26.12C356.185 25.8267 356.545 25.42 356.852 24.9C357.158 24.38 357.438 23.7667 357.692 23.06C357.958 22.3533 358.238 21.5667 358.532 20.7H360.572ZM353.012 20.7V24.94C353.012 25.3533 352.992 25.7533 352.952 26.14C352.912 26.5267 352.845 26.9067 352.752 27.28C352.818 27.6533 352.878 28.0333 352.932 28.42C352.985 28.8067 353.012 29.1733 353.012 29.52V34.5H351.032V20.7H353.012ZM355.052 26.54V28.08H352.432V26.54H355.052ZM368.82 20.7C368.993 20.7 369.146 20.7533 369.28 20.86C369.413 20.9533 369.506 21.08 369.56 21.24L373.92 34.5H371.84L368.4 23.4C368.346 23.2 368.293 23 368.24 22.8C368.186 22.6 368.133 22.4133 368.08 22.24H367.52C367.466 22.4133 367.413 22.6 367.36 22.8C367.306 23 367.246 23.2 367.18 23.4L363.74 34.5H361.68L366.04 21.24C366.093 21.08 366.186 20.9533 366.32 20.86C366.453 20.7533 366.606 20.7 366.78 20.7H368.82ZM371.3 28.64V30.3H364.26V28.64H371.3ZM375.758 34.5V20.7H377.758V34.5H375.758ZM377.598 34.5V32.92H387.378V34.5H377.598ZM383.698 34.5V20.7H385.698V34.5H383.698ZM385.978 37.52L385.778 34.36H387.378V37.52H385.978ZM400.204 20.7V34.5H398.284V24.78C398.284 24.5133 398.291 24.2467 398.304 23.98C398.318 23.7 398.344 23.4267 398.384 23.16H398.284C398.191 23.4267 398.078 23.6933 397.944 23.96C397.811 24.2267 397.678 24.48 397.544 24.72L391.684 34.5H389.664V20.7H391.604V30.3C391.604 30.58 391.591 30.8667 391.564 31.16C391.538 31.44 391.511 31.72 391.484 32H391.564C391.671 31.7333 391.791 31.4667 391.924 31.2C392.071 30.9333 392.218 30.68 392.364 30.44L398.164 20.7H400.204ZM407.771 20.52C408.517 20.52 409.157 20.5267 409.691 20.54C410.224 20.54 410.711 20.5533 411.151 20.58C411.591 20.6067 412.064 20.6467 412.571 20.7L412.291 22.26C411.997 22.2333 411.457 22.2133 410.671 22.2C409.884 22.1867 408.924 22.18 407.791 22.18C407.177 22.18 406.691 22.2533 406.331 22.4C405.971 22.5467 405.704 22.8067 405.531 23.18C405.371 23.54 405.284 24.04 405.271 24.68C405.271 25.2533 405.344 25.7333 405.491 26.12C405.651 26.5067 405.911 26.8 406.271 27C406.631 27.1867 407.117 27.28 407.731 27.28H412.271L412.331 28.9C412.144 28.9 411.917 28.9067 411.651 28.92C411.384 28.92 411.064 28.9267 410.691 28.94C410.317 28.94 409.884 28.9467 409.391 28.96C408.911 28.96 408.364 28.96 407.751 28.96C407.297 28.96 406.924 29.0667 406.631 29.28C406.351 29.48 406.137 29.84 405.991 30.36L404.831 34.5H402.691L403.951 30.28C404.071 29.8667 404.231 29.5267 404.431 29.26C404.644 28.98 404.877 28.7667 405.131 28.62C405.384 28.4733 405.631 28.3733 405.871 28.32L405.851 28.22C405.224 28.1267 404.717 27.9267 404.331 27.62C403.957 27.3 403.684 26.8867 403.511 26.38C403.351 25.86 403.271 25.26 403.271 24.58C403.271 23.58 403.424 22.7867 403.731 22.2C404.037 21.6133 404.524 21.1867 405.191 20.92C405.857 20.6533 406.717 20.52 407.771 20.52ZM412.571 20.7V34.5H410.571V20.7H412.571ZM288.96 44.7C288.68 45.4867 288.42 46.2133 288.18 46.88C287.954 47.5333 287.72 48.12 287.48 48.64C287.24 49.1467 286.98 49.5867 286.7 49.96C286.42 50.3333 286.1 50.6333 285.74 50.86C285.38 51.0733 284.954 51.2067 284.46 51.26V51.34C284.98 51.3933 285.434 51.5333 285.82 51.76C286.207 51.9733 286.547 52.28 286.84 52.68C287.147 53.0667 287.427 53.54 287.68 54.1C287.934 54.66 288.187 55.3133 288.44 56.06C288.707 56.7933 289 57.6067 289.32 58.5H287.22C286.847 57.4333 286.514 56.5 286.22 55.7C285.94 54.9 285.64 54.2333 285.32 53.7C285.014 53.1667 284.654 52.7667 284.24 52.5C283.827 52.22 283.307 52.08 282.68 52.08V50.54C283.267 50.54 283.76 50.4 284.16 50.12C284.574 49.8267 284.934 49.42 285.24 48.9C285.547 48.38 285.827 47.7667 286.08 47.06C286.347 46.3533 286.627 45.5667 286.92 44.7H288.96ZM281.4 44.7V48.94C281.4 49.3533 281.38 49.7533 281.34 50.14C281.3 50.5267 281.234 50.9067 281.14 51.28C281.207 51.6533 281.267 52.0333 281.32 52.42C281.374 52.8067 281.4 53.1733 281.4 53.52V58.5H279.42V44.7H281.4ZM283.44 50.54V52.08H280.82V50.54H283.44ZM296.448 44.52C297.595 44.52 298.495 44.6467 299.148 44.9C299.802 45.1533 300.268 45.5933 300.548 46.22C300.842 46.8467 300.988 47.7333 300.988 48.88C300.988 50.0133 300.848 50.9 300.568 51.54C300.302 52.1667 299.848 52.6067 299.208 52.86C298.582 53.1 297.735 53.22 296.668 53.22C296.095 53.22 295.542 53.2067 295.008 53.18C294.488 53.1533 294.008 53.1133 293.568 53.06C293.128 53.0067 292.748 52.9533 292.428 52.9C292.122 52.8333 291.908 52.7733 291.788 52.72L291.848 51.56C292.568 51.56 293.315 51.56 294.088 51.56C294.875 51.56 295.648 51.56 296.408 51.56C297.048 51.5467 297.555 51.4667 297.928 51.32C298.302 51.1733 298.568 50.9067 298.728 50.52C298.888 50.1333 298.968 49.5867 298.968 48.88C298.968 48.16 298.888 47.6067 298.728 47.22C298.568 46.8333 298.302 46.5667 297.928 46.42C297.555 46.26 297.048 46.18 296.408 46.18C295.288 46.18 294.322 46.1867 293.508 46.2C292.708 46.2133 292.162 46.2333 291.868 46.26L291.588 44.7C292.108 44.6467 292.588 44.6067 293.028 44.58C293.482 44.5533 293.975 44.54 294.508 44.54C295.042 44.5267 295.688 44.52 296.448 44.52ZM293.588 44.7V58.5H291.588V44.7H293.588ZM314.042 44.7V58.5H312.122V48.78C312.122 48.5133 312.129 48.2467 312.142 47.98C312.156 47.7 312.182 47.4267 312.222 47.16H312.122C312.029 47.4267 311.916 47.6933 311.782 47.96C311.649 48.2267 311.516 48.48 311.382 48.72L305.522 58.5H303.502V44.7H305.442V54.3C305.442 54.58 305.429 54.8667 305.402 55.16C305.376 55.44 305.349 55.72 305.322 56H305.402C305.509 55.7333 305.629 55.4667 305.762 55.2C305.909 54.9333 306.056 54.68 306.202 54.44L312.002 44.7H314.042ZM319.409 44.7V58.5H317.409V44.7H319.409ZM325.729 44.7V46.28H319.249V44.7H325.729ZM327.509 44.7V58.5H325.509V44.7H327.509ZM336.045 44.7V58.5H334.045V44.7H336.045ZM340.445 44.7V46.42H329.665V44.7H340.445ZM347.37 44.44C348.384 44.44 349.244 44.56 349.95 44.8C350.67 45.04 351.244 45.4333 351.67 45.98C352.097 46.5267 352.404 47.26 352.59 48.18C352.79 49.1 352.89 50.24 352.89 51.6C352.89 52.9467 352.79 54.0867 352.59 55.02C352.404 55.94 352.097 56.6733 351.67 57.22C351.244 57.7667 350.67 58.16 349.95 58.4C349.244 58.64 348.384 58.76 347.37 58.76C346.357 58.76 345.49 58.64 344.77 58.4C344.064 58.16 343.49 57.7667 343.05 57.22C342.624 56.6733 342.31 55.94 342.11 55.02C341.91 54.0867 341.81 52.9467 341.81 51.6C341.81 50.24 341.91 49.1 342.11 48.18C342.31 47.26 342.624 46.5267 343.05 45.98C343.49 45.4333 344.064 45.04 344.77 44.8C345.49 44.56 346.357 44.44 347.37 44.44ZM347.37 46.18C346.504 46.18 345.817 46.3467 345.31 46.68C344.804 47.0133 344.444 47.5733 344.23 48.36C344.03 49.1333 343.93 50.2133 343.93 51.6C343.93 52.9733 344.03 54.0533 344.23 54.84C344.444 55.6267 344.804 56.1867 345.31 56.52C345.817 56.8533 346.504 57.02 347.37 57.02C348.237 57.02 348.917 56.8533 349.41 56.52C349.917 56.1867 350.277 55.6267 350.49 54.84C350.704 54.0533 350.81 52.9733 350.81 51.6C350.81 50.2133 350.704 49.1333 350.49 48.36C350.277 47.5733 349.917 47.0133 349.41 46.68C348.917 46.3467 348.237 46.18 347.37 46.18ZM364.428 44.7L364.268 46.32H357.768V58.5H355.768V44.7C356.501 44.66 357.235 44.6333 357.968 44.62C358.701 44.5933 359.421 44.58 360.128 44.58C360.861 44.58 361.581 44.5933 362.288 44.62C363.008 44.6333 363.721 44.66 364.428 44.7ZM360.548 50.58C361.721 50.58 362.641 50.7133 363.308 50.98C363.988 51.2333 364.475 51.6533 364.768 52.24C365.061 52.8267 365.208 53.6333 365.208 54.66C365.208 55.5533 365.101 56.2667 364.888 56.8C364.688 57.32 364.388 57.72 363.988 58C363.588 58.2667 363.081 58.4467 362.468 58.54C361.868 58.6333 361.155 58.68 360.328 58.68C359.795 58.68 359.281 58.6733 358.788 58.66C358.308 58.6467 357.821 58.6267 357.328 58.6C356.848 58.5733 356.341 58.54 355.808 58.5L356.108 56.96C356.401 56.9733 356.935 56.9867 357.708 57C358.495 57.0133 359.441 57.02 360.548 57.02C361.255 57.02 361.795 56.96 362.168 56.84C362.555 56.7067 362.821 56.4667 362.968 56.12C363.115 55.76 363.188 55.2467 363.188 54.58C363.188 53.9533 363.121 53.46 362.988 53.1C362.855 52.74 362.595 52.48 362.208 52.32C361.821 52.16 361.268 52.08 360.548 52.08H356.088V50.58H360.548ZM378.378 44.7V58.5H376.458V48.78C376.458 48.5133 376.465 48.2467 376.478 47.98C376.492 47.7 376.518 47.4267 376.558 47.16H376.458C376.365 47.4267 376.252 47.6933 376.118 47.96C375.985 48.2267 375.852 48.48 375.718 48.72L369.858 58.5H367.838V44.7H369.778V54.3C369.778 54.58 369.765 54.8667 369.738 55.16C369.712 55.44 369.685 55.72 369.658 56H369.738C369.845 55.7333 369.965 55.4667 370.098 55.2C370.245 54.9333 370.392 54.68 370.538 54.44L376.338 44.7H378.378ZM386.604 44.52C387.751 44.52 388.651 44.6467 389.304 44.9C389.958 45.1533 390.424 45.5933 390.704 46.22C390.998 46.8467 391.144 47.7333 391.144 48.88C391.144 50.0133 391.004 50.9 390.724 51.54C390.458 52.1667 390.004 52.6067 389.364 52.86C388.738 53.1 387.891 53.22 386.824 53.22C386.251 53.22 385.698 53.2067 385.164 53.18C384.644 53.1533 384.164 53.1133 383.724 53.06C383.284 53.0067 382.904 52.9533 382.584 52.9C382.278 52.8333 382.064 52.7733 381.944 52.72L382.004 51.56C382.724 51.56 383.471 51.56 384.244 51.56C385.031 51.56 385.804 51.56 386.564 51.56C387.204 51.5467 387.711 51.4667 388.084 51.32C388.458 51.1733 388.724 50.9067 388.884 50.52C389.044 50.1333 389.124 49.5867 389.124 48.88C389.124 48.16 389.044 47.6067 388.884 47.22C388.724 46.8333 388.458 46.5667 388.084 46.42C387.711 46.26 387.204 46.18 386.564 46.18C385.444 46.18 384.478 46.1867 383.664 46.2C382.864 46.2133 382.318 46.2333 382.024 46.26L381.744 44.7C382.264 44.6467 382.744 44.6067 383.184 44.58C383.638 44.5533 384.131 44.54 384.664 44.54C385.198 44.5267 385.844 44.52 386.604 44.52ZM383.744 44.7V58.5H381.744V44.7H383.744ZM409.319 44.7C409.052 45.46 408.805 46.1667 408.579 46.82C408.352 47.4733 408.119 48.06 407.879 48.58C407.652 49.1 407.392 49.5533 407.099 49.94C406.819 50.3133 406.492 50.6133 406.119 50.84C405.759 51.0667 405.332 51.2067 404.839 51.26V51.34C405.359 51.3933 405.812 51.5333 406.199 51.76C406.599 51.9733 406.945 52.28 407.239 52.68C407.532 53.0667 407.805 53.54 408.059 54.1C408.312 54.66 408.565 55.3133 408.819 56.06C409.085 56.7933 409.372 57.6067 409.679 58.5H407.559C407.172 57.4333 406.832 56.5 406.539 55.7C406.245 54.9 405.945 54.2333 405.639 53.7C405.345 53.1667 405.005 52.7667 404.619 52.5C404.232 52.22 403.759 52.08 403.199 52.08L403.219 50.54C403.739 50.54 404.185 50.4 404.559 50.12C404.932 49.8267 405.265 49.42 405.559 48.9C405.852 48.38 406.132 47.7667 406.399 47.06C406.679 46.3533 406.972 45.5667 407.279 44.7H409.319ZM394.959 44.7C395.265 45.5667 395.552 46.3533 395.819 47.06C396.085 47.7667 396.365 48.38 396.659 48.9C396.952 49.42 397.285 49.8267 397.659 50.12C398.032 50.4 398.479 50.54 398.999 50.54V52.08C398.452 52.08 397.985 52.22 397.599 52.5C397.212 52.7667 396.865 53.1667 396.559 53.7C396.265 54.2333 395.965 54.9 395.659 55.7C395.365 56.5 395.025 57.4333 394.639 58.5H392.559C392.865 57.6067 393.145 56.7933 393.399 56.06C393.652 55.3133 393.905 54.66 394.159 54.1C394.412 53.54 394.685 53.0667 394.979 52.68C395.285 52.28 395.632 51.9733 396.019 51.76C396.405 51.5333 396.859 51.3933 397.379 51.34V51.26C396.885 51.2067 396.452 51.0667 396.079 50.84C395.719 50.6133 395.399 50.3133 395.119 49.94C394.839 49.5533 394.579 49.1 394.339 48.58C394.112 48.06 393.879 47.4733 393.639 46.82C393.412 46.1667 393.172 45.46 392.919 44.7H394.959ZM400.659 50.54V52.08H398.419V50.54H400.659ZM402.099 44.7V48.94C402.099 49.3533 402.079 49.7467 402.039 50.12C402.012 50.4933 401.939 50.88 401.819 51.28C401.899 51.6533 401.965 52.0333 402.019 52.42C402.072 52.8067 402.099 53.1733 402.099 53.52V58.5H400.199V53.52C400.199 53.1733 400.225 52.8067 400.279 52.42C400.345 52.0333 400.419 51.6533 400.499 51.28C400.392 50.88 400.312 50.4933 400.259 50.12C400.219 49.7467 400.199 49.3533 400.199 48.94V44.7H402.099ZM403.819 50.54V52.08H401.679V50.54H403.819Z" fill="white"/>
<path d="M337.336 77L344 83.6284L350.664 77M337.336 84.6262L344 91.2546L350.664 84.6262" stroke="#094DB1" stroke-width="2"/>
<path d="M501.113 20.54C502.259 20.54 503.166 20.6467 503.833 20.86C504.513 21.06 505.006 21.42 505.313 21.94C505.619 22.46 505.773 23.1933 505.773 24.14C505.773 25.1267 505.586 25.88 505.213 26.4C504.853 26.92 504.253 27.22 503.413 27.3V27.38C504.453 27.4733 505.173 27.8333 505.573 28.46C505.986 29.0867 506.193 29.9533 506.193 31.06C506.193 32.0067 506.039 32.74 505.733 33.26C505.439 33.78 504.966 34.1467 504.313 34.36C503.659 34.56 502.799 34.66 501.733 34.66C500.933 34.66 500.239 34.6533 499.653 34.64C499.066 34.64 498.526 34.6267 498.033 34.6C497.539 34.5733 497.026 34.54 496.493 34.5L496.773 32.96C497.079 32.9733 497.646 32.9867 498.473 33C499.313 33.0133 500.293 33.02 501.413 33.02C502.119 33.02 502.673 32.96 503.073 32.84C503.473 32.72 503.753 32.4933 503.913 32.16C504.086 31.8267 504.173 31.34 504.173 30.7C504.173 30.0067 504.086 29.48 503.913 29.12C503.739 28.7467 503.439 28.4867 503.013 28.34C502.599 28.18 502.026 28.0933 501.293 28.08H496.753V26.62H501.273C501.913 26.6067 502.419 26.54 502.793 26.42C503.166 26.3 503.433 26.08 503.593 25.76C503.753 25.4267 503.833 24.9667 503.833 24.38C503.833 23.78 503.746 23.32 503.573 23C503.399 22.68 503.106 22.4667 502.693 22.36C502.293 22.24 501.733 22.18 501.013 22.18C500.346 22.18 499.746 22.18 499.213 22.18C498.693 22.18 498.226 22.1867 497.813 22.2C497.413 22.2 497.066 22.2133 496.773 22.24L496.493 20.7C496.973 20.6467 497.426 20.6133 497.853 20.6C498.293 20.5733 498.773 20.56 499.293 20.56C499.813 20.5467 500.419 20.54 501.113 20.54ZM498.453 20.7V34.5H496.493V20.7H498.453ZM511.573 20.68C512.24 20.68 512.913 20.68 513.593 20.68C514.286 20.68 514.966 20.6933 515.633 20.72C516.313 20.7333 516.966 20.76 517.593 20.8L517.493 22.34H511.993C511.606 22.34 511.32 22.44 511.133 22.64C510.946 22.84 510.853 23.16 510.853 23.6V31.6C510.853 32.04 510.946 32.3667 511.133 32.58C511.32 32.78 511.606 32.88 511.993 32.88H517.493L517.593 34.4C516.966 34.44 516.313 34.4667 515.633 34.48C514.966 34.4933 514.286 34.5 513.593 34.5C512.913 34.5133 512.24 34.52 511.573 34.52C510.746 34.52 510.086 34.3 509.593 33.86C509.1 33.4067 508.853 32.8067 508.853 32.06V23.14C508.853 22.38 509.1 21.78 509.593 21.34C510.086 20.9 510.746 20.68 511.573 20.68ZM509.193 26.46H516.713V28H509.193V26.46ZM525.122 20.52C526.269 20.52 527.169 20.6467 527.822 20.9C528.475 21.1533 528.942 21.5933 529.222 22.22C529.515 22.8467 529.662 23.7333 529.662 24.88C529.662 26.0133 529.522 26.9 529.242 27.54C528.975 28.1667 528.522 28.6067 527.882 28.86C527.255 29.1 526.409 29.22 525.342 29.22C524.769 29.22 524.215 29.2067 523.682 29.18C523.162 29.1533 522.682 29.1133 522.242 29.06C521.802 29.0067 521.422 28.9533 521.102 28.9C520.795 28.8333 520.582 28.7733 520.462 28.72L520.522 27.56C521.242 27.56 521.989 27.56 522.762 27.56C523.549 27.56 524.322 27.56 525.082 27.56C525.722 27.5467 526.229 27.4667 526.602 27.32C526.975 27.1733 527.242 26.9067 527.402 26.52C527.562 26.1333 527.642 25.5867 527.642 24.88C527.642 24.16 527.562 23.6067 527.402 23.22C527.242 22.8333 526.975 22.5667 526.602 22.42C526.229 22.26 525.722 22.18 525.082 22.18C523.962 22.18 522.995 22.1867 522.182 22.2C521.382 22.2133 520.835 22.2333 520.542 22.26L520.262 20.7C520.782 20.6467 521.262 20.6067 521.702 20.58C522.155 20.5533 522.649 20.54 523.182 20.54C523.715 20.5267 524.362 20.52 525.122 20.52ZM522.262 20.7V34.5H520.262V20.7H522.262ZM542.716 20.7V34.5H540.796V24.78C540.796 24.5133 540.803 24.2467 540.816 23.98C540.829 23.7 540.856 23.4267 540.896 23.16H540.796C540.703 23.4267 540.589 23.6933 540.456 23.96C540.323 24.2267 540.189 24.48 540.056 24.72L534.196 34.5H532.176V20.7H534.116V30.3C534.116 30.58 534.103 30.8667 534.076 31.16C534.049 31.44 534.023 31.72 533.996 32H534.076C534.183 31.7333 534.303 31.4667 534.436 31.2C534.583 30.9333 534.729 30.68 534.876 30.44L540.676 20.7H542.716ZM552.662 21.5C554.009 21.5 555.149 21.6 556.082 21.8C557.029 21.9867 557.782 22.3133 558.342 22.78C558.916 23.2333 559.329 23.8467 559.582 24.62C559.849 25.38 559.982 26.3267 559.982 27.46C559.982 28.5667 559.849 29.5 559.582 30.26C559.329 31.0067 558.916 31.6067 558.342 32.06C557.782 32.5 557.029 32.82 556.082 33.02C555.149 33.2067 554.009 33.3 552.662 33.3C551.316 33.3 550.176 33.2067 549.242 33.02C548.309 32.82 547.556 32.5 546.982 32.06C546.409 31.6067 545.996 31.0067 545.742 30.26C545.489 29.5 545.362 28.5667 545.362 27.46C545.362 26.3267 545.489 25.38 545.742 24.62C545.996 23.8467 546.409 23.2333 546.982 22.78C547.556 22.3133 548.309 21.9867 549.242 21.8C550.176 21.6 551.316 21.5 552.662 21.5ZM552.662 23.12C551.649 23.12 550.802 23.1867 550.122 23.32C549.442 23.4533 548.902 23.68 548.502 24C548.116 24.32 547.836 24.76 547.662 25.32C547.489 25.88 547.402 26.5933 547.402 27.46C547.402 28.2867 547.489 28.9733 547.662 29.52C547.836 30.0667 548.116 30.5 548.502 30.82C548.902 31.14 549.442 31.3667 550.122 31.5C550.802 31.62 551.649 31.68 552.662 31.68C553.676 31.68 554.522 31.62 555.202 31.5C555.882 31.3667 556.422 31.14 556.822 30.82C557.222 30.5 557.509 30.0667 557.682 29.52C557.869 28.9733 557.962 28.2867 557.962 27.46C557.962 26.5933 557.869 25.88 557.682 25.32C557.509 24.76 557.222 24.32 556.822 24C556.422 23.68 555.882 23.4533 555.202 23.32C554.522 23.1867 553.676 23.12 552.662 23.12ZM553.662 19.6L553.682 22.18L553.582 22.6V32.16L553.682 32.62V35.2H551.682V32.62L551.742 32.16V22.6L551.682 22.18V19.6H553.662ZM573.165 20.7V34.5H571.245V24.78C571.245 24.5133 571.252 24.2467 571.265 23.98C571.279 23.7 571.305 23.4267 571.345 23.16H571.245C571.152 23.4267 571.039 23.6933 570.905 23.96C570.772 24.2267 570.639 24.48 570.505 24.72L564.645 34.5H562.625V20.7H564.565V30.3C564.565 30.58 564.552 30.8667 564.525 31.16C564.499 31.44 564.472 31.72 564.445 32H564.525C564.632 31.7333 564.752 31.4667 564.885 31.2C565.032 30.9333 565.179 30.68 565.325 30.44L571.125 20.7H573.165ZM586.072 20.7C585.792 21.4867 585.532 22.2133 585.292 22.88C585.065 23.5333 584.832 24.12 584.592 24.64C584.352 25.1467 584.092 25.5867 583.812 25.96C583.532 26.3333 583.212 26.6333 582.852 26.86C582.492 27.0733 582.065 27.2067 581.572 27.26V27.34C582.092 27.3933 582.545 27.5333 582.932 27.76C583.318 27.9733 583.658 28.28 583.952 28.68C584.258 29.0667 584.538 29.54 584.792 30.1C585.045 30.66 585.298 31.3133 585.552 32.06C585.818 32.7933 586.112 33.6067 586.432 34.5H584.332C583.958 33.4333 583.625 32.5 583.332 31.7C583.052 30.9 582.752 30.2333 582.432 29.7C582.125 29.1667 581.765 28.7667 581.352 28.5C580.938 28.22 580.418 28.08 579.792 28.08V26.54C580.378 26.54 580.872 26.4 581.272 26.12C581.685 25.8267 582.045 25.42 582.352 24.9C582.658 24.38 582.938 23.7667 583.192 23.06C583.458 22.3533 583.738 21.5667 584.032 20.7H586.072ZM578.512 20.7V24.94C578.512 25.3533 578.492 25.7533 578.452 26.14C578.412 26.5267 578.345 26.9067 578.252 27.28C578.318 27.6533 578.378 28.0333 578.432 28.42C578.485 28.8067 578.512 29.1733 578.512 29.52V34.5H576.532V20.7H578.512ZM580.552 26.54V28.08H577.932V26.54H580.552ZM594.32 20.7C594.493 20.7 594.646 20.7533 594.78 20.86C594.913 20.9533 595.006 21.08 595.06 21.24L599.42 34.5H597.34L593.9 23.4C593.846 23.2 593.793 23 593.74 22.8C593.686 22.6 593.633 22.4133 593.58 22.24H593.02C592.966 22.4133 592.913 22.6 592.86 22.8C592.806 23 592.746 23.2 592.68 23.4L589.24 34.5H587.18L591.54 21.24C591.593 21.08 591.686 20.9533 591.82 20.86C591.953 20.7533 592.106 20.7 592.28 20.7H594.32ZM596.8 28.64V30.3H589.76V28.64H596.8ZM601.258 34.5V20.7H603.258V34.5H601.258ZM603.098 34.5V32.92H612.878V34.5H603.098ZM609.198 34.5V20.7H611.198V34.5H609.198ZM611.478 37.52L611.278 34.36H612.878V37.52H611.478ZM625.704 20.7V34.5H623.784V24.78C623.784 24.5133 623.791 24.2467 623.804 23.98C623.818 23.7 623.844 23.4267 623.884 23.16H623.784C623.691 23.4267 623.578 23.6933 623.444 23.96C623.311 24.2267 623.178 24.48 623.044 24.72L617.184 34.5H615.164V20.7H617.104V30.3C617.104 30.58 617.091 30.8667 617.064 31.16C617.038 31.44 617.011 31.72 616.984 32H617.064C617.171 31.7333 617.291 31.4667 617.424 31.2C617.571 30.9333 617.718 30.68 617.864 30.44L623.664 20.7H625.704ZM633.271 20.52C634.017 20.52 634.657 20.5267 635.191 20.54C635.724 20.54 636.211 20.5533 636.651 20.58C637.091 20.6067 637.564 20.6467 638.071 20.7L637.791 22.26C637.497 22.2333 636.957 22.2133 636.171 22.2C635.384 22.1867 634.424 22.18 633.291 22.18C632.677 22.18 632.191 22.2533 631.831 22.4C631.471 22.5467 631.204 22.8067 631.031 23.18C630.871 23.54 630.784 24.04 630.771 24.68C630.771 25.2533 630.844 25.7333 630.991 26.12C631.151 26.5067 631.411 26.8 631.771 27C632.131 27.1867 632.617 27.28 633.231 27.28H637.771L637.831 28.9C637.644 28.9 637.417 28.9067 637.151 28.92C636.884 28.92 636.564 28.9267 636.191 28.94C635.817 28.94 635.384 28.9467 634.891 28.96C634.411 28.96 633.864 28.96 633.251 28.96C632.797 28.96 632.424 29.0667 632.131 29.28C631.851 29.48 631.637 29.84 631.491 30.36L630.331 34.5H628.191L629.451 30.28C629.571 29.8667 629.731 29.5267 629.931 29.26C630.144 28.98 630.377 28.7667 630.631 28.62C630.884 28.4733 631.131 28.3733 631.371 28.32L631.351 28.22C630.724 28.1267 630.217 27.9267 629.831 27.62C629.457 27.3 629.184 26.8867 629.011 26.38C628.851 25.86 628.771 25.26 628.771 24.58C628.771 23.58 628.924 22.7867 629.231 22.2C629.537 21.6133 630.024 21.1867 630.691 20.92C631.357 20.6533 632.217 20.52 633.271 20.52ZM638.071 20.7V34.5H636.071V20.7H638.071ZM541.842 44.7L541.682 46.32H535.182V58.5H533.182V44.7C533.915 44.66 534.649 44.6333 535.382 44.62C536.115 44.5933 536.835 44.58 537.542 44.58C538.275 44.58 538.995 44.5933 539.702 44.62C540.422 44.6333 541.135 44.66 541.842 44.7ZM537.962 50.58C539.135 50.58 540.055 50.7133 540.722 50.98C541.402 51.2333 541.889 51.6533 542.182 52.24C542.475 52.8267 542.622 53.6333 542.622 54.66C542.622 55.5533 542.515 56.2667 542.302 56.8C542.102 57.32 541.802 57.72 541.402 58C541.002 58.2667 540.495 58.4467 539.882 58.54C539.282 58.6333 538.569 58.68 537.742 58.68C537.209 58.68 536.695 58.6733 536.202 58.66C535.722 58.6467 535.235 58.6267 534.742 58.6C534.262 58.5733 533.755 58.54 533.222 58.5L533.522 56.96C533.815 56.9733 534.349 56.9867 535.122 57C535.909 57.0133 536.855 57.02 537.962 57.02C538.669 57.02 539.209 56.96 539.582 56.84C539.969 56.7067 540.235 56.4667 540.382 56.12C540.529 55.76 540.602 55.2467 540.602 54.58C540.602 53.9533 540.535 53.46 540.402 53.1C540.269 52.74 540.009 52.48 539.622 52.32C539.235 52.16 538.682 52.08 537.962 52.08H533.502V50.58H537.962ZM550.872 44.7C551.046 44.7 551.199 44.7533 551.332 44.86C551.466 44.9533 551.559 45.08 551.612 45.24L555.972 58.5H553.892L550.452 47.4C550.399 47.2 550.346 47 550.292 46.8C550.239 46.6 550.186 46.4133 550.132 46.24H549.572C549.519 46.4133 549.466 46.6 549.412 46.8C549.359 47 549.299 47.2 549.232 47.4L545.792 58.5H543.732L548.092 45.24C548.146 45.08 548.239 44.9533 548.372 44.86C548.506 44.7533 548.659 44.7 548.832 44.7H550.872ZM553.352 52.64V54.3H546.312V52.64H553.352ZM559.811 44.7V58.5H557.811V44.7H559.811ZM566.131 50.3V51.96H559.651V50.3H566.131ZM567.911 44.7V58.5H565.911V44.7H567.911ZM580.808 44.7C580.528 45.4867 580.268 46.2133 580.028 46.88C579.801 47.5333 579.568 48.12 579.328 48.64C579.088 49.1467 578.828 49.5867 578.548 49.96C578.268 50.3333 577.948 50.6333 577.588 50.86C577.228 51.0733 576.801 51.2067 576.308 51.26V51.34C576.828 51.3933 577.281 51.5333 577.668 51.76C578.055 51.9733 578.395 52.28 578.688 52.68C578.995 53.0667 579.275 53.54 579.528 54.1C579.781 54.66 580.035 55.3133 580.288 56.06C580.555 56.7933 580.848 57.6067 581.168 58.5H579.068C578.695 57.4333 578.361 56.5 578.068 55.7C577.788 54.9 577.488 54.2333 577.168 53.7C576.861 53.1667 576.501 52.7667 576.088 52.5C575.675 52.22 575.155 52.08 574.528 52.08V50.54C575.115 50.54 575.608 50.4 576.008 50.12C576.421 49.8267 576.781 49.42 577.088 48.9C577.395 48.38 577.675 47.7667 577.928 47.06C578.195 46.3533 578.475 45.5667 578.768 44.7H580.808ZM573.248 44.7V48.94C573.248 49.3533 573.228 49.7533 573.188 50.14C573.148 50.5267 573.081 50.9067 572.988 51.28C573.055 51.6533 573.115 52.0333 573.168 52.42C573.221 52.8067 573.248 53.1733 573.248 53.52V58.5H571.268V44.7H573.248ZM575.288 50.54V52.08H572.668V50.54H575.288ZM588.3 44.44C589.313 44.44 590.173 44.56 590.88 44.8C591.6 45.04 592.173 45.4333 592.6 45.98C593.027 46.5267 593.333 47.26 593.52 48.18C593.72 49.1 593.82 50.24 593.82 51.6C593.82 52.9467 593.72 54.0867 593.52 55.02C593.333 55.94 593.027 56.6733 592.6 57.22C592.173 57.7667 591.6 58.16 590.88 58.4C590.173 58.64 589.313 58.76 588.3 58.76C587.287 58.76 586.42 58.64 585.7 58.4C584.993 58.16 584.42 57.7667 583.98 57.22C583.553 56.6733 583.24 55.94 583.04 55.02C582.84 54.0867 582.74 52.9467 582.74 51.6C582.74 50.24 582.84 49.1 583.04 48.18C583.24 47.26 583.553 46.5267 583.98 45.98C584.42 45.4333 584.993 45.04 585.7 44.8C586.42 44.56 587.287 44.44 588.3 44.44ZM588.3 46.18C587.433 46.18 586.747 46.3467 586.24 46.68C585.733 47.0133 585.373 47.5733 585.16 48.36C584.96 49.1333 584.86 50.2133 584.86 51.6C584.86 52.9733 584.96 54.0533 585.16 54.84C585.373 55.6267 585.733 56.1867 586.24 56.52C586.747 56.8533 587.433 57.02 588.3 57.02C589.167 57.02 589.847 56.8533 590.34 56.52C590.847 56.1867 591.207 55.6267 591.42 54.84C591.633 54.0533 591.74 52.9733 591.74 51.6C591.74 50.2133 591.633 49.1333 591.42 48.36C591.207 47.5733 590.847 47.0133 590.34 46.68C589.847 46.3467 589.167 46.18 588.3 46.18ZM601.318 44.54C602.464 44.54 603.371 44.6467 604.038 44.86C604.718 45.06 605.211 45.42 605.518 45.94C605.824 46.46 605.978 47.1933 605.978 48.14C605.978 49.1267 605.791 49.88 605.418 50.4C605.058 50.92 604.458 51.22 603.618 51.3V51.38C604.658 51.4733 605.378 51.8333 605.778 52.46C606.191 53.0867 606.398 53.9533 606.398 55.06C606.398 56.0067 606.244 56.74 605.938 57.26C605.644 57.78 605.171 58.1467 604.518 58.36C603.864 58.56 603.004 58.66 601.938 58.66C601.138 58.66 600.444 58.6533 599.858 58.64C599.271 58.64 598.731 58.6267 598.238 58.6C597.744 58.5733 597.231 58.54 596.698 58.5L596.978 56.96C597.284 56.9733 597.851 56.9867 598.678 57C599.518 57.0133 600.498 57.02 601.618 57.02C602.324 57.02 602.878 56.96 603.278 56.84C603.678 56.72 603.958 56.4933 604.118 56.16C604.291 55.8267 604.378 55.34 604.378 54.7C604.378 54.0067 604.291 53.48 604.118 53.12C603.944 52.7467 603.644 52.4867 603.218 52.34C602.804 52.18 602.231 52.0933 601.498 52.08H596.958V50.62H601.478C602.118 50.6067 602.624 50.54 602.998 50.42C603.371 50.3 603.638 50.08 603.798 49.76C603.958 49.4267 604.038 48.9667 604.038 48.38C604.038 47.78 603.951 47.32 603.778 47C603.604 46.68 603.311 46.4667 602.898 46.36C602.498 46.24 601.938 46.18 601.218 46.18C600.551 46.18 599.951 46.18 599.418 46.18C598.898 46.18 598.431 46.1867 598.018 46.2C597.618 46.2 597.271 46.2133 596.978 46.24L596.698 44.7C597.178 44.6467 597.631 44.6133 598.058 44.6C598.498 44.5733 598.978 44.56 599.498 44.56C600.018 44.5467 600.624 44.54 601.318 44.54ZM598.658 44.7V58.5H596.698V44.7H598.658Z" fill="white"/>
<path d="M562.836 77L569.5 83.6284L576.164 77M562.836 84.6262L569.5 91.2546L576.164 84.6262" stroke="#094DB1" stroke-width="2"/>
<path d="M714.613 20.54C715.759 20.54 716.666 20.6467 717.333 20.86C718.013 21.06 718.506 21.42 718.813 21.94C719.119 22.46 719.273 23.1933 719.273 24.14C719.273 25.1267 719.086 25.88 718.713 26.4C718.353 26.92 717.753 27.22 716.913 27.3V27.38C717.953 27.4733 718.673 27.8333 719.073 28.46C719.486 29.0867 719.693 29.9533 719.693 31.06C719.693 32.0067 719.539 32.74 719.233 33.26C718.939 33.78 718.466 34.1467 717.813 34.36C717.159 34.56 716.299 34.66 715.233 34.66C714.433 34.66 713.739 34.6533 713.153 34.64C712.566 34.64 712.026 34.6267 711.533 34.6C711.039 34.5733 710.526 34.54 709.993 34.5L710.273 32.96C710.579 32.9733 711.146 32.9867 711.973 33C712.813 33.0133 713.793 33.02 714.913 33.02C715.619 33.02 716.173 32.96 716.573 32.84C716.973 32.72 717.253 32.4933 717.413 32.16C717.586 31.8267 717.673 31.34 717.673 30.7C717.673 30.0067 717.586 29.48 717.413 29.12C717.239 28.7467 716.939 28.4867 716.513 28.34C716.099 28.18 715.526 28.0933 714.793 28.08H710.253V26.62H714.773C715.413 26.6067 715.919 26.54 716.293 26.42C716.666 26.3 716.933 26.08 717.093 25.76C717.253 25.4267 717.333 24.9667 717.333 24.38C717.333 23.78 717.246 23.32 717.073 23C716.899 22.68 716.606 22.4667 716.193 22.36C715.793 22.24 715.233 22.18 714.513 22.18C713.846 22.18 713.246 22.18 712.713 22.18C712.193 22.18 711.726 22.1867 711.313 22.2C710.913 22.2 710.566 22.2133 710.273 22.24L709.993 20.7C710.473 20.6467 710.926 20.6133 711.353 20.6C711.793 20.5733 712.273 20.56 712.793 20.56C713.313 20.5467 713.919 20.54 714.613 20.54ZM711.953 20.7V34.5H709.993V20.7H711.953ZM725.073 20.68C725.74 20.68 726.413 20.68 727.093 20.68C727.786 20.68 728.466 20.6933 729.133 20.72C729.813 20.7333 730.466 20.76 731.093 20.8L730.993 22.34H725.493C725.106 22.34 724.82 22.44 724.633 22.64C724.446 22.84 724.353 23.16 724.353 23.6V31.6C724.353 32.04 724.446 32.3667 724.633 32.58C724.82 32.78 725.106 32.88 725.493 32.88H730.993L731.093 34.4C730.466 34.44 729.813 34.4667 729.133 34.48C728.466 34.4933 727.786 34.5 727.093 34.5C726.413 34.5133 725.74 34.52 725.073 34.52C724.246 34.52 723.586 34.3 723.093 33.86C722.6 33.4067 722.353 32.8067 722.353 32.06V23.14C722.353 22.38 722.6 21.78 723.093 21.34C723.586 20.9 724.246 20.68 725.073 20.68ZM722.693 26.46H730.213V28H722.693V26.46ZM738.622 20.52C739.769 20.52 740.669 20.6467 741.322 20.9C741.975 21.1533 742.442 21.5933 742.722 22.22C743.015 22.8467 743.162 23.7333 743.162 24.88C743.162 26.0133 743.022 26.9 742.742 27.54C742.475 28.1667 742.022 28.6067 741.382 28.86C740.755 29.1 739.909 29.22 738.842 29.22C738.269 29.22 737.715 29.2067 737.182 29.18C736.662 29.1533 736.182 29.1133 735.742 29.06C735.302 29.0067 734.922 28.9533 734.602 28.9C734.295 28.8333 734.082 28.7733 733.962 28.72L734.022 27.56C734.742 27.56 735.489 27.56 736.262 27.56C737.049 27.56 737.822 27.56 738.582 27.56C739.222 27.5467 739.729 27.4667 740.102 27.32C740.475 27.1733 740.742 26.9067 740.902 26.52C741.062 26.1333 741.142 25.5867 741.142 24.88C741.142 24.16 741.062 23.6067 740.902 23.22C740.742 22.8333 740.475 22.5667 740.102 22.42C739.729 22.26 739.222 22.18 738.582 22.18C737.462 22.18 736.495 22.1867 735.682 22.2C734.882 22.2133 734.335 22.2333 734.042 22.26L733.762 20.7C734.282 20.6467 734.762 20.6067 735.202 20.58C735.655 20.5533 736.149 20.54 736.682 20.54C737.215 20.5267 737.862 20.52 738.622 20.52ZM735.762 20.7V34.5H733.762V20.7H735.762ZM756.216 20.7V34.5H754.296V24.78C754.296 24.5133 754.303 24.2467 754.316 23.98C754.329 23.7 754.356 23.4267 754.396 23.16H754.296C754.203 23.4267 754.089 23.6933 753.956 23.96C753.823 24.2267 753.689 24.48 753.556 24.72L747.696 34.5H745.676V20.7H747.616V30.3C747.616 30.58 747.603 30.8667 747.576 31.16C747.549 31.44 747.523 31.72 747.496 32H747.576C747.683 31.7333 747.803 31.4667 747.936 31.2C748.083 30.9333 748.229 30.68 748.376 30.44L754.176 20.7H756.216ZM766.162 21.5C767.509 21.5 768.649 21.6 769.582 21.8C770.529 21.9867 771.282 22.3133 771.842 22.78C772.416 23.2333 772.829 23.8467 773.082 24.62C773.349 25.38 773.482 26.3267 773.482 27.46C773.482 28.5667 773.349 29.5 773.082 30.26C772.829 31.0067 772.416 31.6067 771.842 32.06C771.282 32.5 770.529 32.82 769.582 33.02C768.649 33.2067 767.509 33.3 766.162 33.3C764.816 33.3 763.676 33.2067 762.742 33.02C761.809 32.82 761.056 32.5 760.482 32.06C759.909 31.6067 759.496 31.0067 759.242 30.26C758.989 29.5 758.862 28.5667 758.862 27.46C758.862 26.3267 758.989 25.38 759.242 24.62C759.496 23.8467 759.909 23.2333 760.482 22.78C761.056 22.3133 761.809 21.9867 762.742 21.8C763.676 21.6 764.816 21.5 766.162 21.5ZM766.162 23.12C765.149 23.12 764.302 23.1867 763.622 23.32C762.942 23.4533 762.402 23.68 762.002 24C761.616 24.32 761.336 24.76 761.162 25.32C760.989 25.88 760.902 26.5933 760.902 27.46C760.902 28.2867 760.989 28.9733 761.162 29.52C761.336 30.0667 761.616 30.5 762.002 30.82C762.402 31.14 762.942 31.3667 763.622 31.5C764.302 31.62 765.149 31.68 766.162 31.68C767.176 31.68 768.022 31.62 768.702 31.5C769.382 31.3667 769.922 31.14 770.322 30.82C770.722 30.5 771.009 30.0667 771.182 29.52C771.369 28.9733 771.462 28.2867 771.462 27.46C771.462 26.5933 771.369 25.88 771.182 25.32C771.009 24.76 770.722 24.32 770.322 24C769.922 23.68 769.382 23.4533 768.702 23.32C768.022 23.1867 767.176 23.12 766.162 23.12ZM767.162 19.6L767.182 22.18L767.082 22.6V32.16L767.182 32.62V35.2H765.182V32.62L765.242 32.16V22.6L765.182 22.18V19.6H767.162ZM786.665 20.7V34.5H784.745V24.78C784.745 24.5133 784.752 24.2467 784.765 23.98C784.779 23.7 784.805 23.4267 784.845 23.16H784.745C784.652 23.4267 784.539 23.6933 784.405 23.96C784.272 24.2267 784.139 24.48 784.005 24.72L778.145 34.5H776.125V20.7H778.065V30.3C778.065 30.58 778.052 30.8667 778.025 31.16C777.999 31.44 777.972 31.72 777.945 32H778.025C778.132 31.7333 778.252 31.4667 778.385 31.2C778.532 30.9333 778.679 30.68 778.825 30.44L784.625 20.7H786.665ZM799.572 20.7C799.292 21.4867 799.032 22.2133 798.792 22.88C798.565 23.5333 798.332 24.12 798.092 24.64C797.852 25.1467 797.592 25.5867 797.312 25.96C797.032 26.3333 796.712 26.6333 796.352 26.86C795.992 27.0733 795.565 27.2067 795.072 27.26V27.34C795.592 27.3933 796.045 27.5333 796.432 27.76C796.818 27.9733 797.158 28.28 797.452 28.68C797.758 29.0667 798.038 29.54 798.292 30.1C798.545 30.66 798.798 31.3133 799.052 32.06C799.318 32.7933 799.612 33.6067 799.932 34.5H797.832C797.458 33.4333 797.125 32.5 796.832 31.7C796.552 30.9 796.252 30.2333 795.932 29.7C795.625 29.1667 795.265 28.7667 794.852 28.5C794.438 28.22 793.918 28.08 793.292 28.08V26.54C793.878 26.54 794.372 26.4 794.772 26.12C795.185 25.8267 795.545 25.42 795.852 24.9C796.158 24.38 796.438 23.7667 796.692 23.06C796.958 22.3533 797.238 21.5667 797.532 20.7H799.572ZM792.012 20.7V24.94C792.012 25.3533 791.992 25.7533 791.952 26.14C791.912 26.5267 791.845 26.9067 791.752 27.28C791.818 27.6533 791.878 28.0333 791.932 28.42C791.985 28.8067 792.012 29.1733 792.012 29.52V34.5H790.032V20.7H792.012ZM794.052 26.54V28.08H791.432V26.54H794.052ZM807.82 20.7C807.993 20.7 808.146 20.7533 808.28 20.86C808.413 20.9533 808.506 21.08 808.56 21.24L812.92 34.5H810.84L807.4 23.4C807.346 23.2 807.293 23 807.24 22.8C807.186 22.6 807.133 22.4133 807.08 22.24H806.52C806.466 22.4133 806.413 22.6 806.36 22.8C806.306 23 806.246 23.2 806.18 23.4L802.74 34.5H800.68L805.04 21.24C805.093 21.08 805.186 20.9533 805.32 20.86C805.453 20.7533 805.606 20.7 805.78 20.7H807.82ZM810.3 28.64V30.3H803.26V28.64H810.3ZM814.758 34.5V20.7H816.758V34.5H814.758ZM816.598 34.5V32.92H826.378V34.5H816.598ZM822.698 34.5V20.7H824.698V34.5H822.698ZM824.978 37.52L824.778 34.36H826.378V37.52H824.978ZM839.204 20.7V34.5H837.284V24.78C837.284 24.5133 837.291 24.2467 837.304 23.98C837.318 23.7 837.344 23.4267 837.384 23.16H837.284C837.191 23.4267 837.078 23.6933 836.944 23.96C836.811 24.2267 836.678 24.48 836.544 24.72L830.684 34.5H828.664V20.7H830.604V30.3C830.604 30.58 830.591 30.8667 830.564 31.16C830.538 31.44 830.511 31.72 830.484 32H830.564C830.671 31.7333 830.791 31.4667 830.924 31.2C831.071 30.9333 831.218 30.68 831.364 30.44L837.164 20.7H839.204ZM846.771 20.52C847.517 20.52 848.157 20.5267 848.691 20.54C849.224 20.54 849.711 20.5533 850.151 20.58C850.591 20.6067 851.064 20.6467 851.571 20.7L851.291 22.26C850.997 22.2333 850.457 22.2133 849.671 22.2C848.884 22.1867 847.924 22.18 846.791 22.18C846.177 22.18 845.691 22.2533 845.331 22.4C844.971 22.5467 844.704 22.8067 844.531 23.18C844.371 23.54 844.284 24.04 844.271 24.68C844.271 25.2533 844.344 25.7333 844.491 26.12C844.651 26.5067 844.911 26.8 845.271 27C845.631 27.1867 846.117 27.28 846.731 27.28H851.271L851.331 28.9C851.144 28.9 850.917 28.9067 850.651 28.92C850.384 28.92 850.064 28.9267 849.691 28.94C849.317 28.94 848.884 28.9467 848.391 28.96C847.911 28.96 847.364 28.96 846.751 28.96C846.297 28.96 845.924 29.0667 845.631 29.28C845.351 29.48 845.137 29.84 844.991 30.36L843.831 34.5H841.691L842.951 30.28C843.071 29.8667 843.231 29.5267 843.431 29.26C843.644 28.98 843.877 28.7667 844.131 28.62C844.384 28.4733 844.631 28.3733 844.871 28.32L844.851 28.22C844.224 28.1267 843.717 27.9267 843.331 27.62C842.957 27.3 842.684 26.8867 842.511 26.38C842.351 25.86 842.271 25.26 842.271 24.58C842.271 23.58 842.424 22.7867 842.731 22.2C843.037 21.6133 843.524 21.1867 844.191 20.92C844.857 20.6533 845.717 20.52 846.771 20.52ZM851.571 20.7V34.5H849.571V20.7H851.571ZM746.882 44.7C747.055 44.7 747.209 44.7533 747.342 44.86C747.475 44.9533 747.569 45.08 747.622 45.24L751.982 58.5H749.902L746.462 47.4C746.409 47.2 746.355 47 746.302 46.8C746.249 46.6 746.195 46.4133 746.142 46.24H745.582C745.529 46.4133 745.475 46.6 745.422 46.8C745.369 47 745.309 47.2 745.242 47.4L741.802 58.5H739.742L744.102 45.24C744.155 45.08 744.249 44.9533 744.382 44.86C744.515 44.7533 744.669 44.7 744.842 44.7H746.882ZM749.362 52.64V54.3H742.322V52.64H749.362ZM763.841 44.7V58.5H761.841V46.28H759.201C758.721 46.28 758.374 46.3867 758.161 46.6C757.947 46.8 757.827 47.14 757.801 47.62C757.747 48.5533 757.674 49.4333 757.581 50.26C757.487 51.0733 757.374 51.8467 757.241 52.58C757.107 53.3 756.934 54 756.721 54.68C756.507 55.3467 756.254 55.9933 755.961 56.62C755.681 57.2467 755.341 57.8733 754.941 58.5H753.121C753.787 57.38 754.307 56.2067 754.681 54.98C755.054 53.7533 755.334 52.4933 755.521 51.2C755.707 49.9067 755.834 48.6133 755.901 47.32C755.941 46.5067 756.207 45.8667 756.701 45.4C757.207 44.9333 757.894 44.7 758.761 44.7H763.841ZM754.161 58.36L753.961 61.52H752.561V58.36H754.161ZM765.561 56.92V58.5H752.561V56.92H765.561ZM765.561 58.36V61.52H764.161L764.001 58.36H765.561ZM772.704 44.52C773.851 44.52 774.751 44.6467 775.404 44.9C776.057 45.1533 776.524 45.5933 776.804 46.22C777.097 46.8467 777.244 47.7333 777.244 48.88C777.244 50.0133 777.104 50.9 776.824 51.54C776.557 52.1667 776.104 52.6067 775.464 52.86C774.837 53.1 773.991 53.22 772.924 53.22C772.351 53.22 771.797 53.2067 771.264 53.18C770.744 53.1533 770.264 53.1133 769.824 53.06C769.384 53.0067 769.004 52.9533 768.684 52.9C768.377 52.8333 768.164 52.7733 768.044 52.72L768.104 51.56C768.824 51.56 769.571 51.56 770.344 51.56C771.131 51.56 771.904 51.56 772.664 51.56C773.304 51.5467 773.811 51.4667 774.184 51.32C774.557 51.1733 774.824 50.9067 774.984 50.52C775.144 50.1333 775.224 49.5867 775.224 48.88C775.224 48.16 775.144 47.6067 774.984 47.22C774.824 46.8333 774.557 46.5667 774.184 46.42C773.811 46.26 773.304 46.18 772.664 46.18C771.544 46.18 770.577 46.1867 769.764 46.2C768.964 46.2133 768.417 46.2333 768.124 46.26L767.844 44.7C768.364 44.6467 768.844 44.6067 769.284 44.58C769.737 44.5533 770.231 44.54 770.764 44.54C771.297 44.5267 771.944 44.52 772.704 44.52ZM769.844 44.7V58.5H767.844V44.7H769.844ZM782.358 44.68C783.025 44.68 783.698 44.68 784.378 44.68C785.071 44.68 785.751 44.6933 786.418 44.72C787.098 44.7333 787.751 44.76 788.378 44.8L788.278 46.34H782.778C782.391 46.34 782.105 46.44 781.918 46.64C781.731 46.84 781.638 47.16 781.638 47.6V55.6C781.638 56.04 781.731 56.3667 781.918 56.58C782.105 56.78 782.391 56.88 782.778 56.88H788.278L788.378 58.4C787.751 58.44 787.098 58.4667 786.418 58.48C785.751 58.4933 785.071 58.5 784.378 58.5C783.698 58.5133 783.025 58.52 782.358 58.52C781.531 58.52 780.871 58.3 780.378 57.86C779.885 57.4067 779.638 56.8067 779.638 56.06V47.14C779.638 46.38 779.885 45.78 780.378 45.34C780.871 44.9 781.531 44.68 782.358 44.68ZM779.978 50.46H787.498V52H779.978V50.46ZM795.91 44.46C796.51 44.46 797.023 44.4733 797.45 44.5C797.877 44.5267 798.27 44.5733 798.63 44.64C798.99 44.6933 799.363 44.7733 799.75 44.88L799.55 46.38C799.15 46.34 798.777 46.3133 798.43 46.3C798.083 46.2733 797.71 46.2533 797.31 46.24C796.923 46.2267 796.457 46.22 795.91 46.22C795.057 46.22 794.383 46.3867 793.89 46.72C793.397 47.0533 793.043 47.6133 792.83 48.4C792.63 49.1733 792.53 50.24 792.53 51.6C792.53 52.96 792.63 54.0333 792.83 54.82C793.043 55.5933 793.397 56.1467 793.89 56.48C794.383 56.8133 795.057 56.98 795.91 56.98C796.777 56.98 797.503 56.9667 798.09 56.94C798.69 56.9 799.27 56.84 799.83 56.76L800.03 58.26C799.443 58.4333 798.837 58.5533 798.21 58.62C797.597 58.7 796.83 58.74 795.91 58.74C794.577 58.74 793.503 58.5133 792.69 58.06C791.89 57.5933 791.31 56.84 790.95 55.8C790.59 54.76 790.41 53.36 790.41 51.6C790.41 49.84 790.59 48.44 790.95 47.4C791.31 46.36 791.89 45.6133 792.69 45.16C793.503 44.6933 794.577 44.46 795.91 44.46ZM807.22 44.44C808.233 44.44 809.093 44.56 809.8 44.8C810.52 45.04 811.093 45.4333 811.52 45.98C811.947 46.5267 812.253 47.26 812.44 48.18C812.64 49.1 812.74 50.24 812.74 51.6C812.74 52.9467 812.64 54.0867 812.44 55.02C812.253 55.94 811.947 56.6733 811.52 57.22C811.093 57.7667 810.52 58.16 809.8 58.4C809.093 58.64 808.233 58.76 807.22 58.76C806.207 58.76 805.34 58.64 804.62 58.4C803.913 58.16 803.34 57.7667 802.9 57.22C802.473 56.6733 802.16 55.94 801.96 55.02C801.76 54.0867 801.66 52.9467 801.66 51.6C801.66 50.24 801.76 49.1 801.96 48.18C802.16 47.26 802.473 46.5267 802.9 45.98C803.34 45.4333 803.913 45.04 804.62 44.8C805.34 44.56 806.207 44.44 807.22 44.44ZM807.22 46.18C806.353 46.18 805.667 46.3467 805.16 46.68C804.653 47.0133 804.293 47.5733 804.08 48.36C803.88 49.1333 803.78 50.2133 803.78 51.6C803.78 52.9733 803.88 54.0533 804.08 54.84C804.293 55.6267 804.653 56.1867 805.16 56.52C805.667 56.8533 806.353 57.02 807.22 57.02C808.087 57.02 808.767 56.8533 809.26 56.52C809.767 56.1867 810.127 55.6267 810.34 54.84C810.553 54.0533 810.66 52.9733 810.66 51.6C810.66 50.2133 810.553 49.1333 810.34 48.36C810.127 47.5733 809.767 47.0133 809.26 46.68C808.767 46.3467 808.087 46.18 807.22 46.18ZM820.238 44.54C821.384 44.54 822.291 44.6467 822.958 44.86C823.638 45.06 824.131 45.42 824.438 45.94C824.744 46.46 824.898 47.1933 824.898 48.14C824.898 49.1267 824.711 49.88 824.338 50.4C823.978 50.92 823.378 51.22 822.538 51.3V51.38C823.578 51.4733 824.298 51.8333 824.698 52.46C825.111 53.0867 825.318 53.9533 825.318 55.06C825.318 56.0067 825.164 56.74 824.858 57.26C824.564 57.78 824.091 58.1467 823.438 58.36C822.784 58.56 821.924 58.66 820.858 58.66C820.058 58.66 819.364 58.6533 818.778 58.64C818.191 58.64 817.651 58.6267 817.158 58.6C816.664 58.5733 816.151 58.54 815.618 58.5L815.898 56.96C816.204 56.9733 816.771 56.9867 817.598 57C818.438 57.0133 819.418 57.02 820.538 57.02C821.244 57.02 821.798 56.96 822.198 56.84C822.598 56.72 822.878 56.4933 823.038 56.16C823.211 55.8267 823.298 55.34 823.298 54.7C823.298 54.0067 823.211 53.48 823.038 53.12C822.864 52.7467 822.564 52.4867 822.138 52.34C821.724 52.18 821.151 52.0933 820.418 52.08H815.878V50.62H820.398C821.038 50.6067 821.544 50.54 821.918 50.42C822.291 50.3 822.558 50.08 822.718 49.76C822.878 49.4267 822.958 48.9667 822.958 48.38C822.958 47.78 822.871 47.32 822.698 47C822.524 46.68 822.231 46.4667 821.818 46.36C821.418 46.24 820.858 46.18 820.138 46.18C819.471 46.18 818.871 46.18 818.338 46.18C817.818 46.18 817.351 46.1867 816.938 46.2C816.538 46.2 816.191 46.2133 815.898 46.24L815.618 44.7C816.098 44.6467 816.551 44.6133 816.978 44.6C817.418 44.5733 817.898 44.56 818.418 44.56C818.938 44.5467 819.544 44.54 820.238 44.54ZM817.578 44.7V58.5H815.618V44.7H817.578Z" fill="white"/>
<path d="M776.336 77L783 83.6284L789.664 77M776.336 84.6262L783 91.2546L789.664 84.6262" stroke="#094DB1" stroke-width="2"/>
<path d="M985.928 20.7V34.5H983.928V20.7H985.928ZM994.28 20.52C995.293 20.52 996.146 20.64 996.84 20.88C997.546 21.12 998.113 21.5133 998.54 22.06C998.966 22.5933 999.273 23.32 999.46 24.24C999.66 25.1467 999.76 26.2667 999.76 27.6C999.76 28.9333 999.66 30.06 999.46 30.98C999.273 31.8867 998.966 32.6133 998.54 33.16C998.113 33.6933 997.546 34.08 996.84 34.32C996.146 34.56 995.293 34.68 994.28 34.68C993.32 34.68 992.426 34.66 991.6 34.62C990.786 34.5933 990.013 34.5533 989.28 34.5L990.12 32.9C990.68 32.9267 991.3 32.9533 991.98 32.98C992.673 32.9933 993.44 33 994.28 33C995.133 33 995.806 32.8333 996.3 32.5C996.793 32.1667 997.14 31.6133 997.34 30.84C997.553 30.0533 997.66 28.9733 997.66 27.6C997.66 26.2267 997.553 25.1533 997.34 24.38C997.14 23.5933 996.793 23.0333 996.3 22.7C995.806 22.3533 995.133 22.18 994.28 22.18C993.453 22.18 992.713 22.1867 992.06 22.2C991.406 22.2133 990.766 22.2267 990.14 22.24L989.28 20.7C990.013 20.6467 990.786 20.6067 991.6 20.58C992.426 20.54 993.32 20.52 994.28 20.52ZM991.28 20.7V34.5H989.28V20.7H991.28ZM1008.4 28.74V30.14H1002.32V28.74H1008.4ZM1021.01 20.7C1020.73 21.4867 1020.47 22.2133 1020.23 22.88C1020 23.5333 1019.77 24.12 1019.53 24.64C1019.29 25.1467 1019.03 25.5867 1018.75 25.96C1018.47 26.3333 1018.15 26.6333 1017.79 26.86C1017.43 27.0733 1017 27.2067 1016.51 27.26V27.34C1017.03 27.3933 1017.48 27.5333 1017.87 27.76C1018.25 27.9733 1018.59 28.28 1018.89 28.68C1019.19 29.0667 1019.47 29.54 1019.73 30.1C1019.98 30.66 1020.23 31.3133 1020.49 32.06C1020.75 32.7933 1021.05 33.6067 1021.37 34.5H1019.27C1018.89 33.4333 1018.56 32.5 1018.27 31.7C1017.99 30.9 1017.69 30.2333 1017.37 29.7C1017.06 29.1667 1016.7 28.7667 1016.29 28.5C1015.87 28.22 1015.35 28.08 1014.73 28.08V26.54C1015.31 26.54 1015.81 26.4 1016.21 26.12C1016.62 25.8267 1016.98 25.42 1017.29 24.9C1017.59 24.38 1017.87 23.7667 1018.13 23.06C1018.39 22.3533 1018.67 21.5667 1018.97 20.7H1021.01ZM1013.45 20.7V24.94C1013.45 25.3533 1013.43 25.7533 1013.39 26.14C1013.35 26.5267 1013.28 26.9067 1013.19 27.28C1013.25 27.6533 1013.31 28.0333 1013.37 28.42C1013.42 28.8067 1013.45 29.1733 1013.45 29.52V34.5H1011.47V20.7H1013.45ZM1015.49 26.54V28.08H1012.87V26.54H1015.49ZM1029.26 20.7C1029.43 20.7 1029.58 20.7533 1029.72 20.86C1029.85 20.9533 1029.94 21.08 1030 21.24L1034.36 34.5H1032.28L1028.84 23.4C1028.78 23.2 1028.73 23 1028.68 22.8C1028.62 22.6 1028.57 22.4133 1028.52 22.24H1027.96C1027.9 22.4133 1027.85 22.6 1027.8 22.8C1027.74 23 1027.68 23.2 1027.62 23.4L1024.18 34.5H1022.12L1026.48 21.24C1026.53 21.08 1026.62 20.9533 1026.76 20.86C1026.89 20.7533 1027.04 20.7 1027.22 20.7H1029.26ZM1031.74 28.64V30.3H1024.7V28.64H1031.74ZM1041.05 20.52C1042.2 20.52 1043.1 20.6467 1043.75 20.9C1044.41 21.1533 1044.87 21.5933 1045.15 22.22C1045.45 22.8467 1045.59 23.7333 1045.59 24.88C1045.59 26.0133 1045.45 26.9 1045.17 27.54C1044.91 28.1667 1044.45 28.6067 1043.81 28.86C1043.19 29.1 1042.34 29.22 1041.27 29.22C1040.7 29.22 1040.15 29.2067 1039.61 29.18C1039.09 29.1533 1038.61 29.1133 1038.17 29.06C1037.73 29.0067 1037.35 28.9533 1037.03 28.9C1036.73 28.8333 1036.51 28.7733 1036.39 28.72L1036.45 27.56C1037.17 27.56 1037.92 27.56 1038.69 27.56C1039.48 27.56 1040.25 27.56 1041.01 27.56C1041.65 27.5467 1042.16 27.4667 1042.53 27.32C1042.91 27.1733 1043.17 26.9067 1043.33 26.52C1043.49 26.1333 1043.57 25.5867 1043.57 24.88C1043.57 24.16 1043.49 23.6067 1043.33 23.22C1043.17 22.8333 1042.91 22.5667 1042.53 22.42C1042.16 22.26 1041.65 22.18 1041.01 22.18C1039.89 22.18 1038.93 22.1867 1038.11 22.2C1037.31 22.2133 1036.77 22.2333 1036.47 22.26L1036.19 20.7C1036.71 20.6467 1037.19 20.6067 1037.63 20.58C1038.09 20.5533 1038.58 20.54 1039.11 20.54C1039.65 20.5267 1040.29 20.52 1041.05 20.52ZM1038.19 20.7V34.5H1036.19V20.7H1038.19ZM1053.27 20.7V34.5H1051.27V20.7H1053.27ZM1057.67 20.7V22.42H1046.89V20.7H1057.67ZM1064.57 26.18C1065.73 26.18 1066.64 26.32 1067.31 26.6C1067.99 26.8667 1068.47 27.3133 1068.75 27.94C1069.04 28.5533 1069.19 29.3933 1069.19 30.46C1069.19 31.5667 1069.04 32.4267 1068.75 33.04C1068.45 33.64 1067.99 34.06 1067.37 34.3C1066.74 34.54 1065.91 34.66 1064.87 34.66C1064.09 34.66 1063.43 34.6533 1062.87 34.64C1062.31 34.64 1061.79 34.6267 1061.33 34.6C1060.86 34.5733 1060.37 34.54 1059.87 34.5L1060.13 32.92C1060.43 32.9333 1060.97 32.9467 1061.75 32.96C1062.53 32.9733 1063.47 32.98 1064.57 32.98C1065.26 32.98 1065.79 32.9133 1066.17 32.78C1066.54 32.6467 1066.8 32.3933 1066.95 32.02C1067.09 31.6467 1067.17 31.1133 1067.17 30.42C1067.17 29.7667 1067.1 29.2467 1066.97 28.86C1066.83 28.4733 1066.58 28.1933 1066.21 28.02C1065.83 27.8467 1065.29 27.76 1064.57 27.76H1060.11V26.18H1064.57ZM1061.81 20.7V34.5H1059.81V20.7H1061.81ZM1073.57 20.7V34.5H1071.59V20.7H1073.57ZM1089.65 20.7L1081.79 35.84H1080.21L1088.07 20.7H1089.65ZM1100.91 20.54C1102.06 20.54 1102.96 20.6467 1103.63 20.86C1104.31 21.06 1104.8 21.42 1105.11 21.94C1105.42 22.46 1105.57 23.1933 1105.57 24.14C1105.57 25.1267 1105.38 25.88 1105.01 26.4C1104.65 26.92 1104.05 27.22 1103.21 27.3V27.38C1104.25 27.4733 1104.97 27.8333 1105.37 28.46C1105.78 29.0867 1105.99 29.9533 1105.99 31.06C1105.99 32.0067 1105.84 32.74 1105.53 33.26C1105.24 33.78 1104.76 34.1467 1104.11 34.36C1103.46 34.56 1102.6 34.66 1101.53 34.66C1100.73 34.66 1100.04 34.6533 1099.45 34.64C1098.86 34.64 1098.32 34.6267 1097.83 34.6C1097.34 34.5733 1096.82 34.54 1096.29 34.5L1096.57 32.96C1096.88 32.9733 1097.44 32.9867 1098.27 33C1099.11 33.0133 1100.09 33.02 1101.21 33.02C1101.92 33.02 1102.47 32.96 1102.87 32.84C1103.27 32.72 1103.55 32.4933 1103.71 32.16C1103.88 31.8267 1103.97 31.34 1103.97 30.7C1103.97 30.0067 1103.88 29.48 1103.71 29.12C1103.54 28.7467 1103.24 28.4867 1102.81 28.34C1102.4 28.18 1101.82 28.0933 1101.09 28.08H1096.55V26.62H1101.07C1101.71 26.6067 1102.22 26.54 1102.59 26.42C1102.96 26.3 1103.23 26.08 1103.39 25.76C1103.55 25.4267 1103.63 24.9667 1103.63 24.38C1103.63 23.78 1103.54 23.32 1103.37 23C1103.2 22.68 1102.9 22.4667 1102.49 22.36C1102.09 22.24 1101.53 22.18 1100.81 22.18C1100.14 22.18 1099.54 22.18 1099.01 22.18C1098.49 22.18 1098.02 22.1867 1097.61 22.2C1097.21 22.2 1096.86 22.2133 1096.57 22.24L1096.29 20.7C1096.77 20.6467 1097.22 20.6133 1097.65 20.6C1098.09 20.5733 1098.57 20.56 1099.09 20.56C1099.61 20.5467 1100.22 20.54 1100.91 20.54ZM1098.25 20.7V34.5H1096.29V20.7H1098.25ZM1110.77 20.7V34.5H1108.77V20.7H1110.77ZM1117.09 26.3V27.96H1110.61V26.3H1117.09ZM1118.87 20.7V34.5H1116.87V20.7H1118.87ZM1137.89 20.7C1137.62 21.46 1137.38 22.1667 1137.15 22.82C1136.92 23.4733 1136.69 24.06 1136.45 24.58C1136.22 25.1 1135.96 25.5533 1135.67 25.94C1135.39 26.3133 1135.06 26.6133 1134.69 26.84C1134.33 27.0667 1133.9 27.2067 1133.41 27.26V27.34C1133.93 27.3933 1134.38 27.5333 1134.77 27.76C1135.17 27.9733 1135.52 28.28 1135.81 28.68C1136.1 29.0667 1136.38 29.54 1136.63 30.1C1136.88 30.66 1137.14 31.3133 1137.39 32.06C1137.66 32.7933 1137.94 33.6067 1138.25 34.5H1136.13C1135.74 33.4333 1135.4 32.5 1135.11 31.7C1134.82 30.9 1134.52 30.2333 1134.21 29.7C1133.92 29.1667 1133.58 28.7667 1133.19 28.5C1132.8 28.22 1132.33 28.08 1131.77 28.08L1131.79 26.54C1132.31 26.54 1132.76 26.4 1133.13 26.12C1133.5 25.8267 1133.84 25.42 1134.13 24.9C1134.42 24.38 1134.7 23.7667 1134.97 23.06C1135.25 22.3533 1135.54 21.5667 1135.85 20.7H1137.89ZM1123.53 20.7C1123.84 21.5667 1124.12 22.3533 1124.39 23.06C1124.66 23.7667 1124.94 24.38 1125.23 24.9C1125.52 25.42 1125.86 25.8267 1126.23 26.12C1126.6 26.4 1127.05 26.54 1127.57 26.54V28.08C1127.02 28.08 1126.56 28.22 1126.17 28.5C1125.78 28.7667 1125.44 29.1667 1125.13 29.7C1124.84 30.2333 1124.54 30.9 1124.23 31.7C1123.94 32.5 1123.6 33.4333 1123.21 34.5H1121.13C1121.44 33.6067 1121.72 32.7933 1121.97 32.06C1122.22 31.3133 1122.48 30.66 1122.73 30.1C1122.98 29.54 1123.26 29.0667 1123.55 28.68C1123.86 28.28 1124.2 27.9733 1124.59 27.76C1124.98 27.5333 1125.43 27.3933 1125.95 27.34V27.26C1125.46 27.2067 1125.02 27.0667 1124.65 26.84C1124.29 26.6133 1123.97 26.3133 1123.69 25.94C1123.41 25.5533 1123.15 25.1 1122.91 24.58C1122.68 24.06 1122.45 23.4733 1122.21 22.82C1121.98 22.1667 1121.74 21.46 1121.49 20.7H1123.53ZM1129.23 26.54V28.08H1126.99V26.54H1129.23ZM1130.67 20.7V24.94C1130.67 25.3533 1130.65 25.7467 1130.61 26.12C1130.58 26.4933 1130.51 26.88 1130.39 27.28C1130.47 27.6533 1130.54 28.0333 1130.59 28.42C1130.64 28.8067 1130.67 29.1733 1130.67 29.52V34.5H1128.77V29.52C1128.77 29.1733 1128.8 28.8067 1128.85 28.42C1128.92 28.0333 1128.99 27.6533 1129.07 27.28C1128.96 26.88 1128.88 26.4933 1128.83 26.12C1128.79 25.7467 1128.77 25.3533 1128.77 24.94V20.7H1130.67ZM1132.39 26.54V28.08H1130.25V26.54H1132.39ZM1153.22 20.7L1145.36 35.84H1143.78L1151.64 20.7H1153.22ZM916.536 44.54C917.683 44.54 918.59 44.6467 919.256 44.86C919.936 45.06 920.43 45.42 920.736 45.94C921.043 46.46 921.196 47.1933 921.196 48.14C921.196 49.1267 921.01 49.88 920.636 50.4C920.276 50.92 919.676 51.22 918.836 51.3V51.38C919.876 51.4733 920.596 51.8333 920.996 52.46C921.41 53.0867 921.616 53.9533 921.616 55.06C921.616 56.0067 921.463 56.74 921.156 57.26C920.863 57.78 920.39 58.1467 919.736 58.36C919.083 58.56 918.223 58.66 917.156 58.66C916.356 58.66 915.663 58.6533 915.076 58.64C914.49 58.64 913.95 58.6267 913.456 58.6C912.963 58.5733 912.45 58.54 911.916 58.5L912.196 56.96C912.503 56.9733 913.07 56.9867 913.896 57C914.736 57.0133 915.716 57.02 916.836 57.02C917.543 57.02 918.096 56.96 918.496 56.84C918.896 56.72 919.176 56.4933 919.336 56.16C919.51 55.8267 919.596 55.34 919.596 54.7C919.596 54.0067 919.51 53.48 919.336 53.12C919.163 52.7467 918.863 52.4867 918.436 52.34C918.023 52.18 917.45 52.0933 916.716 52.08H912.176V50.62H916.696C917.336 50.6067 917.843 50.54 918.216 50.42C918.59 50.3 918.856 50.08 919.016 49.76C919.176 49.4267 919.256 48.9667 919.256 48.38C919.256 47.78 919.17 47.32 918.996 47C918.823 46.68 918.53 46.4667 918.116 46.36C917.716 46.24 917.156 46.18 916.436 46.18C915.77 46.18 915.17 46.18 914.636 46.18C914.116 46.18 913.65 46.1867 913.236 46.2C912.836 46.2 912.49 46.2133 912.196 46.24L911.916 44.7C912.396 44.6467 912.85 44.6133 913.276 44.6C913.716 44.5733 914.196 44.56 914.716 44.56C915.236 44.5467 915.843 44.54 916.536 44.54ZM913.876 44.7V58.5H911.916V44.7H913.876ZM929.437 44.44C930.45 44.44 931.31 44.56 932.017 44.8C932.737 45.04 933.31 45.4333 933.737 45.98C934.163 46.5267 934.47 47.26 934.657 48.18C934.857 49.1 934.957 50.24 934.957 51.6C934.957 52.9467 934.857 54.0867 934.657 55.02C934.47 55.94 934.163 56.6733 933.737 57.22C933.31 57.7667 932.737 58.16 932.017 58.4C931.31 58.64 930.45 58.76 929.437 58.76C928.423 58.76 927.557 58.64 926.837 58.4C926.13 58.16 925.557 57.7667 925.117 57.22C924.69 56.6733 924.377 55.94 924.177 55.02C923.977 54.0867 923.877 52.9467 923.877 51.6C923.877 50.24 923.977 49.1 924.177 48.18C924.377 47.26 924.69 46.5267 925.117 45.98C925.557 45.4333 926.13 45.04 926.837 44.8C927.557 44.56 928.423 44.44 929.437 44.44ZM929.437 46.18C928.57 46.18 927.883 46.3467 927.377 46.68C926.87 47.0133 926.51 47.5733 926.297 48.36C926.097 49.1333 925.997 50.2133 925.997 51.6C925.997 52.9733 926.097 54.0533 926.297 54.84C926.51 55.6267 926.87 56.1867 927.377 56.52C927.883 56.8533 928.57 57.02 929.437 57.02C930.303 57.02 930.983 56.8533 931.477 56.52C931.983 56.1867 932.343 55.6267 932.557 54.84C932.77 54.0533 932.877 52.9733 932.877 51.6C932.877 50.2133 932.77 49.1333 932.557 48.36C932.343 47.5733 931.983 47.0133 931.477 46.68C930.983 46.3467 930.303 46.18 929.437 46.18ZM947.464 44.7V58.5H945.464V46.28H942.824C942.344 46.28 941.997 46.3867 941.784 46.6C941.57 46.8 941.45 47.14 941.424 47.62C941.37 48.5533 941.297 49.4333 941.204 50.26C941.11 51.0733 940.997 51.8467 940.864 52.58C940.73 53.3 940.557 54 940.344 54.68C940.13 55.3467 939.877 55.9933 939.584 56.62C939.304 57.2467 938.964 57.8733 938.564 58.5H936.744C937.41 57.38 937.93 56.2067 938.304 54.98C938.677 53.7533 938.957 52.4933 939.144 51.2C939.33 49.9067 939.457 48.6133 939.524 47.32C939.564 46.5067 939.83 45.8667 940.324 45.4C940.83 44.9333 941.517 44.7 942.384 44.7H947.464ZM937.784 58.36L937.584 61.52H936.184V58.36H937.784ZM949.184 56.92V58.5H936.184V56.92H949.184ZM949.184 58.36V61.52H947.784L947.624 58.36H949.184ZM962.007 44.7V58.5H960.087V48.78C960.087 48.5133 960.094 48.2467 960.107 47.98C960.12 47.7 960.147 47.4267 960.187 47.16H960.087C959.994 47.4267 959.88 47.6933 959.747 47.96C959.614 48.2267 959.48 48.48 959.347 48.72L953.487 58.5H951.467V44.7H953.407V54.3C953.407 54.58 953.394 54.8667 953.367 55.16C953.34 55.44 953.314 55.72 953.287 56H953.367C953.474 55.7333 953.594 55.4667 953.727 55.2C953.874 54.9333 954.02 54.68 954.167 54.44L959.967 44.7H962.007ZM970.533 44.7V58.5H968.533V44.7H970.533ZM974.933 44.7V46.42H964.153V44.7H974.933ZM979.673 44.68C980.339 44.68 981.013 44.68 981.693 44.68C982.386 44.68 983.066 44.6933 983.733 44.72C984.413 44.7333 985.066 44.76 985.693 44.8L985.593 46.34H980.093C979.706 46.34 979.419 46.44 979.233 46.64C979.046 46.84 978.953 47.16 978.953 47.6V55.6C978.953 56.04 979.046 56.3667 979.233 56.58C979.419 56.78 979.706 56.88 980.093 56.88H985.593L985.693 58.4C985.066 58.44 984.413 58.4667 983.733 58.48C983.066 58.4933 982.386 58.5 981.693 58.5C981.013 58.5133 980.339 58.52 979.673 58.52C978.846 58.52 978.186 58.3 977.693 57.86C977.199 57.4067 976.953 56.8067 976.953 56.06V47.14C976.953 46.38 977.199 45.78 977.693 45.34C978.186 44.9 978.846 44.68 979.673 44.68ZM977.293 50.46H984.813V52H977.293V50.46ZM997.842 44.7V46.28H993.542C992.662 46.28 992.182 46.7267 992.102 47.62C992.008 48.74 991.922 49.72 991.842 50.56C991.762 51.3867 991.668 52.12 991.562 52.76C991.468 53.3867 991.355 53.9467 991.222 54.44C991.102 54.92 990.928 55.3867 990.702 55.84C990.448 56.4267 990.142 56.9267 989.782 57.34C989.435 57.7533 989.028 58.06 988.562 58.26C988.108 58.4467 987.595 58.5333 987.022 58.52L986.862 56.98C987.288 56.86 987.662 56.68 987.982 56.44C988.315 56.1867 988.602 55.8067 988.842 55.3C988.988 54.9533 989.115 54.6133 989.222 54.28C989.328 53.9333 989.422 53.5533 989.502 53.14C989.595 52.7267 989.675 52.2467 989.742 51.7C989.822 51.1533 989.888 50.5267 989.942 49.82C990.008 49.1 990.082 48.26 990.162 47.3C990.322 45.5667 991.262 44.7 992.982 44.7H997.842ZM998.122 44.7V58.5H996.122V44.7H998.122ZM1006.27 50.18C1007.43 50.18 1008.34 50.32 1009.01 50.6C1009.69 50.8667 1010.17 51.3133 1010.45 51.94C1010.74 52.5533 1010.89 53.3933 1010.89 54.46C1010.89 55.5667 1010.74 56.4267 1010.45 57.04C1010.17 57.64 1009.71 58.06 1009.07 58.3C1008.44 58.54 1007.61 58.66 1006.59 58.66C1005.81 58.66 1005.14 58.6533 1004.57 58.64C1004.01 58.64 1003.49 58.6267 1003.03 58.6C1002.56 58.5733 1002.07 58.54 1001.57 58.5L1001.83 56.92C1002.13 56.9333 1002.67 56.9467 1003.45 56.96C1004.23 56.9733 1005.17 56.98 1006.27 56.98C1006.97 56.98 1007.51 56.9133 1007.89 56.78C1008.26 56.6467 1008.52 56.3933 1008.67 56.02C1008.81 55.6467 1008.89 55.1133 1008.89 54.42C1008.89 53.7667 1008.81 53.2467 1008.67 52.86C1008.53 52.4733 1008.28 52.1933 1007.91 52.02C1007.53 51.8467 1006.99 51.76 1006.27 51.76H1001.81V50.18H1006.27ZM1003.51 44.7V58.5H1001.51V44.7H1003.51ZM1018.44 44.46C1019.04 44.46 1019.55 44.4733 1019.98 44.5C1020.41 44.5267 1020.8 44.5733 1021.16 44.64C1021.52 44.6933 1021.89 44.7733 1022.28 44.88L1022.08 46.38C1021.68 46.34 1021.31 46.3133 1020.96 46.3C1020.61 46.2733 1020.24 46.2533 1019.84 46.24C1019.45 46.2267 1018.99 46.22 1018.44 46.22C1017.59 46.22 1016.91 46.3867 1016.42 46.72C1015.93 47.0533 1015.57 47.6133 1015.36 48.4C1015.16 49.1733 1015.06 50.24 1015.06 51.6C1015.06 52.96 1015.16 54.0333 1015.36 54.82C1015.57 55.5933 1015.93 56.1467 1016.42 56.48C1016.91 56.8133 1017.59 56.98 1018.44 56.98C1019.31 56.98 1020.03 56.9667 1020.62 56.94C1021.22 56.9 1021.8 56.84 1022.36 56.76L1022.56 58.26C1021.97 58.4333 1021.37 58.5533 1020.74 58.62C1020.13 58.7 1019.36 58.74 1018.44 58.74C1017.11 58.74 1016.03 58.5133 1015.22 58.06C1014.42 57.5933 1013.84 56.84 1013.48 55.8C1013.12 54.76 1012.94 53.36 1012.94 51.6C1012.94 49.84 1013.12 48.44 1013.48 47.4C1013.84 46.36 1014.42 45.6133 1015.22 45.16C1016.03 44.6933 1017.11 44.46 1018.44 44.46ZM1034.46 44.7C1034.18 45.4867 1033.92 46.2133 1033.68 46.88C1033.46 47.5333 1033.22 48.12 1032.98 48.64C1032.74 49.1467 1032.48 49.5867 1032.2 49.96C1031.92 50.3333 1031.6 50.6333 1031.24 50.86C1030.88 51.0733 1030.46 51.2067 1029.96 51.26V51.34C1030.48 51.3933 1030.94 51.5333 1031.32 51.76C1031.71 51.9733 1032.05 52.28 1032.34 52.68C1032.65 53.0667 1032.93 53.54 1033.18 54.1C1033.44 54.66 1033.69 55.3133 1033.94 56.06C1034.21 56.7933 1034.5 57.6067 1034.82 58.5H1032.72C1032.35 57.4333 1032.02 56.5 1031.72 55.7C1031.44 54.9 1031.14 54.2333 1030.82 53.7C1030.52 53.1667 1030.16 52.7667 1029.74 52.5C1029.33 52.22 1028.81 52.08 1028.18 52.08V50.54C1028.77 50.54 1029.26 50.4 1029.66 50.12C1030.08 49.8267 1030.44 49.42 1030.74 48.9C1031.05 48.38 1031.33 47.7667 1031.58 47.06C1031.85 46.3533 1032.13 45.5667 1032.42 44.7H1034.46ZM1026.9 44.7V48.94C1026.9 49.3533 1026.88 49.7533 1026.84 50.14C1026.8 50.5267 1026.74 50.9067 1026.64 51.28C1026.71 51.6533 1026.77 52.0333 1026.82 52.42C1026.88 52.8067 1026.9 53.1733 1026.9 53.52V58.5H1024.92V44.7H1026.9ZM1028.94 50.54V52.08H1026.32V50.54H1028.94ZM1047.63 44.7V58.5H1045.71V48.78C1045.71 48.5133 1045.72 48.2467 1045.73 47.98C1045.75 47.7 1045.77 47.4267 1045.81 47.16H1045.71C1045.62 47.4267 1045.51 47.6933 1045.37 47.96C1045.24 48.2267 1045.11 48.48 1044.97 48.72L1039.11 58.5H1037.09V44.7H1039.03V54.3C1039.03 54.58 1039.02 54.8667 1038.99 55.16C1038.97 55.44 1038.94 55.72 1038.91 56H1038.99C1039.1 55.7333 1039.22 55.4667 1039.35 55.2C1039.5 54.9333 1039.65 54.68 1039.79 54.44L1045.59 44.7H1047.63ZM1053.6 44.68C1054.27 44.68 1054.94 44.68 1055.62 44.68C1056.31 44.68 1056.99 44.6933 1057.66 44.72C1058.34 44.7333 1058.99 44.76 1059.62 44.8L1059.52 46.34H1054.02C1053.63 46.34 1053.35 46.44 1053.16 46.64C1052.97 46.84 1052.88 47.16 1052.88 47.6V55.6C1052.88 56.04 1052.97 56.3667 1053.16 56.58C1053.35 56.78 1053.63 56.88 1054.02 56.88H1059.52L1059.62 58.4C1058.99 58.44 1058.34 58.4667 1057.66 58.48C1056.99 58.4933 1056.31 58.5 1055.62 58.5C1054.94 58.5133 1054.27 58.52 1053.6 58.52C1052.77 58.52 1052.11 58.3 1051.62 57.86C1051.13 57.4067 1050.88 56.8067 1050.88 56.06V47.14C1050.88 46.38 1051.13 45.78 1051.62 45.34C1052.11 44.9 1052.77 44.68 1053.6 44.68ZM1051.22 50.46H1058.74V52H1051.22V50.46ZM1076.2 44.7L1072.56 55.06C1072.33 55.7 1072.08 56.2867 1071.8 56.82C1071.53 57.34 1071.21 57.7667 1070.82 58.1C1070.45 58.42 1069.97 58.6067 1069.4 58.66C1069.15 58.6733 1068.86 58.6667 1068.54 58.64C1068.22 58.6267 1067.9 58.5933 1067.58 58.54C1067.26 58.4867 1066.98 58.4333 1066.74 58.38L1066.96 56.92C1067.61 56.9733 1068.13 57 1068.52 57C1068.91 57 1069.21 56.94 1069.42 56.82C1069.65 56.7 1069.84 56.5067 1070 56.24C1070.16 55.96 1070.34 55.5733 1070.54 55.08L1071 53.86L1071.24 53.14L1074.16 44.7H1076.2ZM1067.48 44.7L1070.14 52.56C1070.22 52.7733 1070.37 52.88 1070.58 52.88H1071.54L1071.9 54.5H1070C1069.6 54.5 1069.28 54.4133 1069.04 54.24C1068.81 54.0667 1068.65 53.8067 1068.54 53.46L1065.4 44.7H1067.48ZM1087.01 44.7V58.5H1085.01V46.28H1082.37C1081.89 46.28 1081.55 46.3867 1081.33 46.6C1081.12 46.8 1081 47.14 1080.97 47.62C1080.92 48.5533 1080.85 49.4333 1080.75 50.26C1080.66 51.0733 1080.55 51.8467 1080.41 52.58C1080.28 53.3 1080.11 54 1079.89 54.68C1079.68 55.3467 1079.43 55.9933 1079.13 56.62C1078.85 57.2467 1078.51 57.8733 1078.11 58.5H1076.29C1076.96 57.38 1077.48 56.2067 1077.85 54.98C1078.23 53.7533 1078.51 52.4933 1078.69 51.2C1078.88 49.9067 1079.01 48.6133 1079.07 47.32C1079.11 46.5067 1079.38 45.8667 1079.87 45.4C1080.38 44.9333 1081.07 44.7 1081.93 44.7H1087.01ZM1077.33 58.36L1077.13 61.52H1075.73V58.36H1077.33ZM1088.73 56.92V58.5H1075.73V56.92H1088.73ZM1088.73 58.36V61.52H1087.33L1087.17 58.36H1088.73ZM1095.98 44.44C1096.99 44.44 1097.85 44.56 1098.56 44.8C1099.28 45.04 1099.85 45.4333 1100.28 45.98C1100.71 46.5267 1101.01 47.26 1101.2 48.18C1101.4 49.1 1101.5 50.24 1101.5 51.6C1101.5 52.9467 1101.4 54.0867 1101.2 55.02C1101.01 55.94 1100.71 56.6733 1100.28 57.22C1099.85 57.7667 1099.28 58.16 1098.56 58.4C1097.85 58.64 1096.99 58.76 1095.98 58.76C1094.97 58.76 1094.1 58.64 1093.38 58.4C1092.67 58.16 1092.1 57.7667 1091.66 57.22C1091.23 56.6733 1090.92 55.94 1090.72 55.02C1090.52 54.0867 1090.42 52.9467 1090.42 51.6C1090.42 50.24 1090.52 49.1 1090.72 48.18C1090.92 47.26 1091.23 46.5267 1091.66 45.98C1092.1 45.4333 1092.67 45.04 1093.38 44.8C1094.1 44.56 1094.97 44.44 1095.98 44.44ZM1095.98 46.18C1095.11 46.18 1094.43 46.3467 1093.92 46.68C1093.41 47.0133 1093.05 47.5733 1092.84 48.36C1092.64 49.1333 1092.54 50.2133 1092.54 51.6C1092.54 52.9733 1092.64 54.0533 1092.84 54.84C1093.05 55.6267 1093.41 56.1867 1093.92 56.52C1094.43 56.8533 1095.11 57.02 1095.98 57.02C1096.85 57.02 1097.53 56.8533 1098.02 56.52C1098.53 56.1867 1098.89 55.6267 1099.1 54.84C1099.31 54.0533 1099.42 52.9733 1099.42 51.6C1099.42 50.2133 1099.31 49.1333 1099.1 48.36C1098.89 47.5733 1098.53 47.0133 1098.02 46.68C1097.53 46.3467 1096.85 46.18 1095.98 46.18ZM1109.38 44.46C1109.98 44.46 1110.49 44.4733 1110.92 44.5C1111.34 44.5267 1111.74 44.5733 1112.1 44.64C1112.46 44.6933 1112.83 44.7733 1113.22 44.88L1113.02 46.38C1112.62 46.34 1112.24 46.3133 1111.9 46.3C1111.55 46.2733 1111.18 46.2533 1110.78 46.24C1110.39 46.2267 1109.92 46.22 1109.38 46.22C1108.52 46.22 1107.85 46.3867 1107.36 46.72C1106.86 47.0533 1106.51 47.6133 1106.3 48.4C1106.1 49.1733 1106 50.24 1106 51.6C1106 52.96 1106.1 54.0333 1106.3 54.82C1106.51 55.5933 1106.86 56.1467 1107.36 56.48C1107.85 56.8133 1108.52 56.98 1109.38 56.98C1110.24 56.98 1110.97 56.9667 1111.56 56.94C1112.16 56.9 1112.74 56.84 1113.3 56.76L1113.5 58.26C1112.91 58.4333 1112.3 58.5533 1111.68 58.62C1111.06 58.7 1110.3 58.74 1109.38 58.74C1108.04 58.74 1106.97 58.5133 1106.16 58.06C1105.36 57.5933 1104.78 56.84 1104.42 55.8C1104.06 54.76 1103.88 53.36 1103.88 51.6C1103.88 49.84 1104.06 48.44 1104.42 47.4C1104.78 46.36 1105.36 45.6133 1106.16 45.16C1106.97 44.6933 1108.04 44.46 1109.38 44.46ZM1121.02 44.7V58.5H1119.02V44.7H1121.02ZM1125.42 44.7V46.42H1114.64V44.7H1125.42ZM1132.35 44.44C1133.36 44.44 1134.22 44.56 1134.93 44.8C1135.65 45.04 1136.22 45.4333 1136.65 45.98C1137.07 46.5267 1137.38 47.26 1137.57 48.18C1137.77 49.1 1137.87 50.24 1137.87 51.6C1137.87 52.9467 1137.77 54.0867 1137.57 55.02C1137.38 55.94 1137.07 56.6733 1136.65 57.22C1136.22 57.7667 1135.65 58.16 1134.93 58.4C1134.22 58.64 1133.36 58.76 1132.35 58.76C1131.33 58.76 1130.47 58.64 1129.75 58.4C1129.04 58.16 1128.47 57.7667 1128.03 57.22C1127.6 56.6733 1127.29 55.94 1127.09 55.02C1126.89 54.0867 1126.79 52.9467 1126.79 51.6C1126.79 50.24 1126.89 49.1 1127.09 48.18C1127.29 47.26 1127.6 46.5267 1128.03 45.98C1128.47 45.4333 1129.04 45.04 1129.75 44.8C1130.47 44.56 1131.33 44.44 1132.35 44.44ZM1132.35 46.18C1131.48 46.18 1130.79 46.3467 1130.29 46.68C1129.78 47.0133 1129.42 47.5733 1129.21 48.36C1129.01 49.1333 1128.91 50.2133 1128.91 51.6C1128.91 52.9733 1129.01 54.0533 1129.21 54.84C1129.42 55.6267 1129.78 56.1867 1130.29 56.52C1130.79 56.8533 1131.48 57.02 1132.35 57.02C1133.21 57.02 1133.89 56.8533 1134.39 56.52C1134.89 56.1867 1135.25 55.6267 1135.47 54.84C1135.68 54.0533 1135.79 52.9733 1135.79 51.6C1135.79 50.2133 1135.68 49.1333 1135.47 48.36C1135.25 47.5733 1134.89 47.0133 1134.39 46.68C1133.89 46.3467 1133.21 46.18 1132.35 46.18ZM1145.36 44.54C1146.51 44.54 1147.42 44.6467 1148.08 44.86C1148.76 45.06 1149.26 45.42 1149.56 45.94C1149.87 46.46 1150.02 47.1933 1150.02 48.14C1150.02 49.1267 1149.84 49.88 1149.46 50.4C1149.1 50.92 1148.5 51.22 1147.66 51.3V51.38C1148.7 51.4733 1149.42 51.8333 1149.82 52.46C1150.24 53.0867 1150.44 53.9533 1150.44 55.06C1150.44 56.0067 1150.29 56.74 1149.98 57.26C1149.69 57.78 1149.22 58.1467 1148.56 58.36C1147.91 58.56 1147.05 58.66 1145.98 58.66C1145.18 58.66 1144.49 58.6533 1143.9 58.64C1143.32 58.64 1142.78 58.6267 1142.28 58.6C1141.79 58.5733 1141.28 58.54 1140.74 58.5L1141.02 56.96C1141.33 56.9733 1141.9 56.9867 1142.72 57C1143.56 57.0133 1144.54 57.02 1145.66 57.02C1146.37 57.02 1146.92 56.96 1147.32 56.84C1147.72 56.72 1148 56.4933 1148.16 56.16C1148.34 55.8267 1148.42 55.34 1148.42 54.7C1148.42 54.0067 1148.34 53.48 1148.16 53.12C1147.99 52.7467 1147.69 52.4867 1147.26 52.34C1146.85 52.18 1146.28 52.0933 1145.54 52.08H1141V50.62H1145.52C1146.16 50.6067 1146.67 50.54 1147.04 50.42C1147.42 50.3 1147.68 50.08 1147.84 49.76C1148 49.4267 1148.08 48.9667 1148.08 48.38C1148.08 47.78 1148 47.32 1147.82 47C1147.65 46.68 1147.36 46.4667 1146.94 46.36C1146.54 46.24 1145.98 46.18 1145.26 46.18C1144.6 46.18 1144 46.18 1143.46 46.18C1142.94 46.18 1142.48 46.1867 1142.06 46.2C1141.66 46.2 1141.32 46.2133 1141.02 46.24L1140.74 44.7C1141.22 44.6467 1141.68 44.6133 1142.1 44.6C1142.54 44.5733 1143.02 44.56 1143.54 44.56C1144.06 44.5467 1144.67 44.54 1145.36 44.54ZM1142.7 44.7V58.5H1140.74V44.7H1142.7ZM1155.82 44.68C1156.49 44.68 1157.16 44.68 1157.84 44.68C1158.54 44.68 1159.22 44.6933 1159.88 44.72C1160.56 44.7333 1161.22 44.76 1161.84 44.8L1161.74 46.34H1156.24C1155.86 46.34 1155.57 46.44 1155.38 46.64C1155.2 46.84 1155.1 47.16 1155.1 47.6V55.6C1155.1 56.04 1155.2 56.3667 1155.38 56.58C1155.57 56.78 1155.86 56.88 1156.24 56.88H1161.74L1161.84 58.4C1161.22 58.44 1160.56 58.4667 1159.88 58.48C1159.22 58.4933 1158.54 58.5 1157.84 58.5C1157.16 58.5133 1156.49 58.52 1155.82 58.52C1155 58.52 1154.34 58.3 1153.84 57.86C1153.35 57.4067 1153.1 56.8067 1153.1 56.06V47.14C1153.1 46.38 1153.35 45.78 1153.84 45.34C1154.34 44.9 1155 44.68 1155.82 44.68ZM1153.44 50.46H1160.96V52H1153.44V50.46ZM1169.37 44.52C1170.52 44.52 1171.42 44.6467 1172.07 44.9C1172.73 45.1533 1173.19 45.5933 1173.47 46.22C1173.77 46.8467 1173.91 47.7333 1173.91 48.88C1173.91 50.0133 1173.77 50.9 1173.49 51.54C1173.23 52.1667 1172.77 52.6067 1172.13 52.86C1171.51 53.1 1170.66 53.22 1169.59 53.22C1169.02 53.22 1168.47 53.2067 1167.93 53.18C1167.41 53.1533 1166.93 53.1133 1166.49 53.06C1166.05 53.0067 1165.67 52.9533 1165.35 52.9C1165.05 52.8333 1164.83 52.7733 1164.71 52.72L1164.77 51.56C1165.49 51.56 1166.24 51.56 1167.01 51.56C1167.8 51.56 1168.57 51.56 1169.33 51.56C1169.97 51.5467 1170.48 51.4667 1170.85 51.32C1171.23 51.1733 1171.49 50.9067 1171.65 50.52C1171.81 50.1333 1171.89 49.5867 1171.89 48.88C1171.89 48.16 1171.81 47.6067 1171.65 47.22C1171.49 46.8333 1171.23 46.5667 1170.85 46.42C1170.48 46.26 1169.97 46.18 1169.33 46.18C1168.21 46.18 1167.25 46.1867 1166.43 46.2C1165.63 46.2133 1165.09 46.2333 1164.79 46.26L1164.51 44.7C1165.03 44.6467 1165.51 44.6067 1165.95 44.58C1166.41 44.5533 1166.9 44.54 1167.43 44.54C1167.97 44.5267 1168.61 44.52 1169.37 44.52ZM1166.51 44.7V58.5H1164.51V44.7H1166.51ZM1179.03 44.68C1179.69 44.68 1180.37 44.68 1181.05 44.68C1181.74 44.68 1182.42 44.6933 1183.09 44.72C1183.77 44.7333 1184.42 44.76 1185.05 44.8L1184.95 46.34H1179.45C1179.06 46.34 1178.77 46.44 1178.59 46.64C1178.4 46.84 1178.31 47.16 1178.31 47.6V55.6C1178.31 56.04 1178.4 56.3667 1178.59 56.58C1178.77 56.78 1179.06 56.88 1179.45 56.88H1184.95L1185.05 58.4C1184.42 58.44 1183.77 58.4667 1183.09 58.48C1182.42 58.4933 1181.74 58.5 1181.05 58.5C1180.37 58.5133 1179.69 58.52 1179.03 58.52C1178.2 58.52 1177.54 58.3 1177.05 57.86C1176.55 57.4067 1176.31 56.8067 1176.31 56.06V47.14C1176.31 46.38 1176.55 45.78 1177.05 45.34C1177.54 44.9 1178.2 44.68 1179.03 44.68ZM1176.65 50.46H1184.17V52H1176.65V50.46ZM1189.72 44.7V58.5H1187.72V44.7H1189.72ZM1196.04 50.3V51.96H1189.56V50.3H1196.04ZM1197.82 44.7V58.5H1195.82V44.7H1197.82ZM1211.71 44.7V58.5H1209.79V48.78C1209.79 48.5133 1209.8 48.2467 1209.81 47.98C1209.83 47.7 1209.85 47.4267 1209.89 47.16H1209.79C1209.7 47.4267 1209.59 47.6933 1209.45 47.96C1209.32 48.2267 1209.19 48.48 1209.05 48.72L1203.19 58.5H1201.17V44.7H1203.11V54.3C1203.11 54.58 1203.1 54.8667 1203.07 55.16C1203.05 55.44 1203.02 55.72 1202.99 56H1203.07C1203.18 55.7333 1203.3 55.4667 1203.43 55.2C1203.58 54.9333 1203.73 54.68 1203.87 54.44L1209.67 44.7H1211.71ZM1219.28 44.52C1220.03 44.52 1220.67 44.5267 1221.2 44.54C1221.73 44.54 1222.22 44.5533 1222.66 44.58C1223.1 44.6067 1223.57 44.6467 1224.08 44.7L1223.8 46.26C1223.51 46.2333 1222.97 46.2133 1222.18 46.2C1221.39 46.1867 1220.43 46.18 1219.3 46.18C1218.69 46.18 1218.2 46.2533 1217.84 46.4C1217.48 46.5467 1217.21 46.8067 1217.04 47.18C1216.88 47.54 1216.79 48.04 1216.78 48.68C1216.78 49.2533 1216.85 49.7333 1217 50.12C1217.16 50.5067 1217.42 50.8 1217.78 51C1218.14 51.1867 1218.63 51.28 1219.24 51.28H1223.78L1223.84 52.9C1223.65 52.9 1223.43 52.9067 1223.16 52.92C1222.89 52.92 1222.57 52.9267 1222.2 52.94C1221.83 52.94 1221.39 52.9467 1220.9 52.96C1220.42 52.96 1219.87 52.96 1219.26 52.96C1218.81 52.96 1218.43 53.0667 1218.14 53.28C1217.86 53.48 1217.65 53.84 1217.5 54.36L1216.34 58.5H1214.2L1215.46 54.28C1215.58 53.8667 1215.74 53.5267 1215.94 53.26C1216.15 52.98 1216.39 52.7667 1216.64 52.62C1216.89 52.4733 1217.14 52.3733 1217.38 52.32L1217.36 52.22C1216.73 52.1267 1216.23 51.9267 1215.84 51.62C1215.47 51.3 1215.19 50.8867 1215.02 50.38C1214.86 49.86 1214.78 49.26 1214.78 48.58C1214.78 47.58 1214.93 46.7867 1215.24 46.2C1215.55 45.6133 1216.03 45.1867 1216.7 44.92C1217.37 44.6533 1218.23 44.52 1219.28 44.52ZM1224.08 44.7V58.5H1222.08V44.7H1224.08Z" fill="white"/>
<path d="M1061.34 77L1068 83.6284L1074.66 77M1061.34 84.6262L1068 91.2546L1074.66 84.6262" stroke="#094DB1" stroke-width="2"/>
<path d="M1308.09 20.7L1304.15 26.38C1304.03 26.5667 1303.9 26.7333 1303.77 26.88C1303.65 27.0133 1303.51 27.1533 1303.35 27.3V27.34C1303.52 27.5 1303.69 27.6667 1303.85 27.84C1304.01 28 1304.14 28.1667 1304.25 28.34L1308.37 34.5H1306.11L1301.33 27.28L1305.91 20.7H1308.09ZM1300.37 20.7V24.94C1300.37 25.3533 1300.34 25.7467 1300.29 26.12C1300.25 26.4933 1300.18 26.88 1300.09 27.28C1300.17 27.6533 1300.23 28.0333 1300.29 28.42C1300.34 28.8067 1300.37 29.1733 1300.37 29.52V34.5H1298.39V20.7H1300.37ZM1302.33 26.54V28.08H1299.69V26.54H1302.33ZM1320.02 20.7L1315.36 29.88H1313.54L1308.86 20.7H1310.98L1313.78 26.38C1313.9 26.6333 1314 26.9 1314.1 27.18C1314.19 27.4467 1314.28 27.7133 1314.38 27.98H1314.52C1314.61 27.7133 1314.7 27.4467 1314.8 27.18C1314.9 26.9 1315.01 26.64 1315.12 26.4L1317.92 20.7H1320.02ZM1315.44 28.52V34.5H1313.44V28.52H1315.44ZM1326.57 20.46C1327.17 20.46 1327.68 20.4733 1328.11 20.5C1328.53 20.5267 1328.93 20.5733 1329.29 20.64C1329.65 20.6933 1330.02 20.7733 1330.41 20.88L1330.21 22.38C1329.81 22.34 1329.43 22.3133 1329.09 22.3C1328.74 22.2733 1328.37 22.2533 1327.97 22.24C1327.58 22.2267 1327.11 22.22 1326.57 22.22C1325.71 22.22 1325.04 22.3867 1324.55 22.72C1324.05 23.0533 1323.7 23.6133 1323.49 24.4C1323.29 25.1733 1323.19 26.24 1323.19 27.6C1323.19 28.96 1323.29 30.0333 1323.49 30.82C1323.7 31.5933 1324.05 32.1467 1324.55 32.48C1325.04 32.8133 1325.71 32.98 1326.57 32.98C1327.43 32.98 1328.16 32.9667 1328.75 32.94C1329.35 32.9 1329.93 32.84 1330.49 32.76L1330.69 34.26C1330.1 34.4333 1329.49 34.5533 1328.87 34.62C1328.25 34.7 1327.49 34.74 1326.57 34.74C1325.23 34.74 1324.16 34.5133 1323.35 34.06C1322.55 33.5933 1321.97 32.84 1321.61 31.8C1321.25 30.76 1321.07 29.36 1321.07 27.6C1321.07 25.84 1321.25 24.44 1321.61 23.4C1321.97 22.36 1322.55 21.6133 1323.35 21.16C1324.16 20.6933 1325.23 20.46 1326.57 20.46ZM1345.77 20.7L1337.91 35.84H1336.33L1344.19 20.7H1345.77ZM1308.51 44.7C1308.68 44.7 1308.83 44.7533 1308.97 44.86C1309.1 44.9533 1309.19 45.08 1309.25 45.24L1313.61 58.5H1311.53L1308.09 47.4C1308.03 47.2 1307.98 47 1307.93 46.8C1307.87 46.6 1307.82 46.4133 1307.77 46.24H1307.21C1307.15 46.4133 1307.1 46.6 1307.05 46.8C1306.99 47 1306.93 47.2 1306.87 47.4L1303.43 58.5H1301.37L1305.73 45.24C1305.78 45.08 1305.87 44.9533 1306.01 44.86C1306.14 44.7533 1306.29 44.7 1306.47 44.7H1308.51ZM1310.99 52.64V54.3H1303.95V52.64H1310.99ZM1328.69 44.7C1329.21 44.7 1329.47 44.9733 1329.49 45.52L1330.05 58.5H1328.09L1327.59 46.32H1327.19L1324.27 56.22C1324.16 56.66 1323.88 56.88 1323.43 56.88H1321.79C1321.32 56.88 1321.03 56.66 1320.91 56.22L1317.99 46.32H1317.59L1317.13 58.5H1315.17L1315.71 45.52C1315.73 44.9733 1316 44.7 1316.51 44.7H1318.67C1319.09 44.7 1319.37 44.92 1319.51 45.36L1321.93 53.52C1322.03 53.8267 1322.12 54.1333 1322.19 54.44C1322.25 54.7467 1322.33 55.0667 1322.43 55.4H1322.77C1322.86 55.0667 1322.94 54.7467 1323.01 54.44C1323.09 54.1333 1323.17 53.8133 1323.27 53.48L1325.69 45.36C1325.79 44.92 1326.07 44.7 1326.53 44.7H1328.69ZM1335.06 44.7V55.58C1335.06 56.0067 1335.17 56.3267 1335.38 56.54C1335.59 56.74 1335.92 56.84 1336.36 56.84H1341.3L1341.4 58.38C1340.51 58.4467 1339.6 58.4867 1338.68 58.5C1337.76 58.5133 1336.84 58.52 1335.92 58.52C1334.91 58.52 1334.18 58.2733 1333.74 57.78C1333.3 57.2733 1333.08 56.64 1333.08 55.88V44.7H1335.06Z" fill="white"/>
<path d="M1314.84 77L1321.5 83.6284L1328.16 77M1314.84 84.6262L1321.5 91.2546L1328.16 84.6262" stroke="#094DB1" stroke-width="2"/>
</svg>
