<svg width="55" height="52" viewBox="0 0 55 52" fill="none" xmlns="http://www.w3.org/2000/svg">
<path d="M4.33246 22.4135C2.39946 22.4135 0.832458 23.9805 0.832458 25.9135C0.832458 27.8464 2.39946 29.4135 4.33246 29.4135V22.4135ZM53.2107 28.3883C54.5775 27.0215 54.5775 24.8054 53.2107 23.4386L30.9368 1.16471C29.57 -0.20212 27.3539 -0.20212 25.9871 1.16471C24.6202 2.53155 24.6202 4.74763 25.9871 6.11446L45.7861 25.9135L25.9871 45.7124C24.6202 47.0793 24.6202 49.2954 25.9871 50.6622C27.3539 52.029 29.57 52.029 30.9368 50.6622L53.2107 28.3883ZM4.33246 29.4135H50.7358V22.4135H4.33246V29.4135Z" fill="#0D6EFD"/>
</svg>
