<svg width="63" height="63" viewBox="0 0 63 63" fill="none" xmlns="http://www.w3.org/2000/svg">
<rect x="0.536865" y="0.413574" width="62" height="62" rx="31" fill="#0D6EFD"/>
<g clip-path="url(#clip0_6_275)">
<path fill-rule="evenodd" clip-rule="evenodd" d="M22.9119 23.2827V31.1519H22.0478H21.1837L21.2011 33.6919L21.2185 36.2319L22.0652 36.2505L22.9119 36.2691V37.396V38.5229H22.0478H21.1837L21.2011 41.063L21.2185 43.603L22.0652 43.6216L22.9119 43.6402V46.5269V49.4136H25.4685H28.0252V46.5256V43.6375L31.1961 43.6203L34.367 43.603L34.3843 41.063L34.4017 38.5229H31.2134H28.0252V37.4006V36.2782L32.2586 36.2467C36.826 36.2127 37.011 36.1999 38.2988 35.8284C42.1796 34.7088 45.0798 31.4352 45.7243 27.4469C45.8565 26.629 45.8602 25.0654 45.7319 24.2788C45.3984 22.2344 44.6061 20.524 43.2867 18.9996C41.5763 17.0235 39.0997 15.746 36.4683 15.4824C36.0454 15.4401 33.3037 15.4136 29.3462 15.4136H22.9119V23.2827ZM28.0252 25.8402V31.1592L32.1589 31.1358C36.6457 31.1104 36.4833 31.123 37.4693 30.7247C38.9977 30.1074 40.2223 28.6813 40.6202 27.0559C40.7829 26.3905 40.7678 25.1587 40.5887 24.4977C40.1861 23.0119 39.168 21.7605 37.8201 21.0948C36.7082 20.5456 36.9524 20.5697 32.2253 20.5441L28.0252 20.5213V25.8402Z" fill="white"/>
</g>
<defs>
<clipPath id="clip0_6_275">
<rect width="34" height="34" fill="white" transform="translate(16.5369 15.4136)"/>
</clipPath>
</defs>
</svg>
