<svg width="74" height="75" viewBox="0 0 74 75" fill="none" xmlns="http://www.w3.org/2000/svg">
<g filter="url(#filter0_d_144_700)">
<rect x="20" y="20.5" width="34" height="34" rx="17" fill="#0D6EFD"/>
<path fill-rule="evenodd" clip-rule="evenodd" d="M31.7525 29.5708C31.4684 29.6715 31.2955 29.7799 30.8364 30.145C29.7034 31.046 29.2971 31.5511 29.1067 32.2956C28.8987 33.1085 29.0704 33.8013 29.8921 35.4664C31.465 38.6532 33.6705 41.2155 36.4921 43.1342C37.5002 43.8197 38.7548 44.5121 39.906 45.0184C40.8416 45.4298 41.0318 45.4812 41.6289 45.4838C42.0833 45.4858 42.1668 45.4752 42.4232 45.3825C42.5808 45.3256 42.8093 45.2206 42.931 45.1493C43.3986 44.8752 44.5996 43.5334 44.8477 43.0078C44.936 42.8209 44.9492 42.7419 44.9492 42.4003C44.9492 42.0254 44.9426 41.9943 44.8028 41.7116C44.5766 41.2538 44.331 41.0516 43.2866 40.4632C40.6702 38.9893 40.4998 38.9084 40.005 38.9071C39.2886 38.9051 38.9043 39.2544 38.6613 40.1284C38.5811 40.417 38.4412 40.5202 38.1628 40.4963C37.942 40.4773 37.8518 40.418 37.1953 39.8601C36.1917 39.0072 35.3419 38.1567 34.5437 37.2062C34.1223 36.7046 33.9921 36.5007 33.9921 36.3425C33.9921 36.052 34.1086 35.932 34.4861 35.8334C34.9614 35.7093 35.3262 35.4475 35.5079 35.1001C35.5959 34.932 35.6115 34.8525 35.6123 34.5703C35.6135 34.157 35.5307 33.8897 35.2687 33.4612C34.8191 32.7258 34.552 32.2503 34.1612 31.4897C33.6278 30.4515 33.4583 30.1778 33.1933 29.9272C32.7746 29.5312 32.2385 29.3986 31.7525 29.5708Z" fill="white"/>
</g>
<defs>
<filter id="filter0_d_144_700" x="0" y="0.5" width="74" height="74" filterUnits="userSpaceOnUse" color-interpolation-filters="sRGB">
<feFlood flood-opacity="0" result="BackgroundImageFix"/>
<feColorMatrix in="SourceAlpha" type="matrix" values="0 0 0 0 0 0 0 0 0 0 0 0 0 0 0 0 0 0 127 0" result="hardAlpha"/>
<feOffset/>
<feGaussianBlur stdDeviation="10"/>
<feComposite in2="hardAlpha" operator="out"/>
<feColorMatrix type="matrix" values="0 0 0 0 0.0509804 0 0 0 0 0.431373 0 0 0 0 0.992157 0 0 0 0.7 0"/>
<feBlend mode="normal" in2="BackgroundImageFix" result="effect1_dropShadow_144_700"/>
<feBlend mode="normal" in="SourceGraphic" in2="effect1_dropShadow_144_700" result="shape"/>
</filter>
</defs>
</svg>
