<svg width="63" height="63" viewBox="0 0 63 63" fill="none" xmlns="http://www.w3.org/2000/svg">
<rect x="0.536865" y="0.413574" width="62" height="62" rx="31" fill="#0D6EFD"/>
<g clip-path="url(#clip0_6_297)">
<path fill-rule="evenodd" clip-rule="evenodd" d="M31.4636 15.0226C28.9889 15.2595 26.4041 16.1278 24.2253 17.4541C22.0927 18.7523 19.8953 20.9497 18.5972 23.0822C17.342 25.1442 16.5715 27.3316 16.2113 29.8557C16.0997 30.6376 16.0997 33.2573 16.2113 34.0393C16.517 36.1811 17.0627 37.914 18.0102 39.7511C18.8449 41.3696 19.7278 42.566 21.0999 43.9381C22.472 45.3102 23.6684 46.1931 25.2869 47.0278C29.5312 49.2168 34.3217 49.5404 38.8373 47.9429C39.8233 47.5941 41.5398 46.7321 42.4223 46.1425C44.4345 44.7983 46.2151 42.9742 47.5277 40.9123C47.9404 40.2642 48.7547 38.5945 49.0537 37.7836C49.5377 36.4709 50.0229 34.208 50.0238 33.259C50.024 33.0855 50.054 32.9436 50.0905 32.9436C50.1321 32.9436 50.1565 32.5403 50.1559 31.8645C50.1552 31.1432 50.1336 30.8184 50.0905 30.885C50.0442 30.9566 50.0258 30.8915 50.0248 30.6526C50.0209 29.6812 49.5428 27.4421 49.0551 26.1114C48.7627 25.3137 47.9465 23.6422 47.5272 22.9826C46.1716 20.85 44.1858 18.8643 42.0554 17.511C41.3024 17.0327 39.7138 16.264 38.8302 15.9504C36.4739 15.1142 33.897 14.7897 31.4636 15.0226ZM31.9616 17.2461C26.6071 17.7353 22.0429 20.8899 19.7703 25.6721C19.1632 26.9495 18.7587 28.2867 18.5047 29.8557C18.3406 30.8696 18.3406 33.0253 18.5047 34.0393C19.045 37.3766 20.3888 40.0387 22.6954 42.3411C24.9726 44.6142 27.5742 45.9457 30.8327 46.5057C31.5153 46.6229 31.9224 46.6478 33.1237 46.6456C34.3941 46.6433 34.7102 46.6206 35.5476 46.4715C38.7634 45.8986 41.5721 44.3951 43.7758 42.0666C45.8828 39.8402 47.1641 37.2033 47.6763 34.0393C47.8405 33.0253 47.8405 30.8696 47.6763 29.8557C47.1575 26.6508 45.8679 24.0214 43.7025 21.7535C41.0014 18.9243 37.3458 17.32 33.4226 17.2419C32.7834 17.2292 32.126 17.2311 31.9616 17.2461ZM32.7356 21.8156C32.4253 21.9288 32.2027 22.1294 32.0649 22.4197C31.9744 22.6105 31.9616 23.229 31.9616 27.4149V32.1922L32.111 32.465C32.2265 32.676 32.9242 33.2682 35.1823 35.0722C36.7894 36.356 38.1913 37.4514 38.2977 37.5065C38.558 37.6413 39.1461 37.5913 39.3852 37.4142C39.8452 37.0735 39.9969 36.4807 39.7543 35.972C39.6737 35.803 38.9248 35.1664 36.9334 33.5739L34.2222 31.4059L34.2042 26.94L34.1862 22.4742L34.0002 22.2303C33.6812 21.8122 33.1881 21.6505 32.7356 21.8156ZM16.1176 31.9475C16.1176 32.5501 16.1276 32.7967 16.1399 32.4953C16.1522 32.194 16.1522 31.7009 16.1399 31.3996C16.1276 31.0983 16.1176 31.3448 16.1176 31.9475Z" fill="white"/>
</g>
<defs>
<clipPath id="clip0_6_297">
<rect width="34" height="34" fill="white" transform="translate(16.0906 14.9475)"/>
</clipPath>
</defs>
</svg>
