<svg width="164" height="33" viewBox="0 0 164 33" fill="none" xmlns="http://www.w3.org/2000/svg">
<path fill-rule="evenodd" clip-rule="evenodd" d="M14.5362 4.68361C14.2292 4.96961 13.3719 6.48836 12.6312 8.05861C11.8907 9.62886 11.1924 10.9161 11.0797 10.9194C10.9672 10.9226 9.41244 11.1419 7.62494 11.4066C4.74219 11.8339 4.31144 11.9619 3.81244 12.5399C3.45469 12.9544 3.24994 13.5181 3.24994 14.0889C3.24994 14.8891 3.51919 15.2599 5.74494 17.5216L8.23994 20.0571L7.74669 22.9229C7.09194 26.7254 7.10719 27.2026 7.90894 28.0046C8.91294 29.0084 9.76019 28.8676 13.0802 27.1446L16.0072 25.6256L18.8992 27.1446C22.1984 28.8774 23.0729 29.0224 24.0909 28.0046C24.8987 27.1966 24.9144 26.6641 24.2399 22.9191L23.7302 20.0874L26.2399 17.5366C28.4799 15.2604 28.7499 14.8896 28.7499 14.0889C28.7499 13.5179 28.5452 12.9544 28.1874 12.5401C27.6859 11.9591 27.2612 11.8351 24.2662 11.3964C22.4187 11.1259 20.8847 10.8784 20.8572 10.8464C20.8297 10.8146 20.1779 9.52961 19.4087 7.99086C18.6397 6.45186 17.7619 4.96136 17.4579 4.67836C16.7207 3.99136 15.2762 3.99411 14.5362 4.68361Z" fill="#C2294A"/>
<path fill-rule="evenodd" clip-rule="evenodd" d="M47.5362 4.68361C47.2292 4.96961 46.3719 6.48836 45.6312 8.05861C44.8907 9.62886 44.1924 10.9161 44.0797 10.9194C43.9672 10.9226 42.4124 11.1419 40.6249 11.4066C37.7422 11.8339 37.3114 11.9619 36.8124 12.5399C36.4547 12.9544 36.2499 13.5181 36.2499 14.0889C36.2499 14.8891 36.5192 15.2599 38.7449 17.5216L41.2399 20.0571L40.7467 22.9229C40.0919 26.7254 40.1072 27.2026 40.9089 28.0046C41.9129 29.0084 42.7602 28.8676 46.0802 27.1446L49.0072 25.6256L51.8992 27.1446C55.1984 28.8774 56.0729 29.0224 57.0909 28.0046C57.8987 27.1966 57.9144 26.6641 57.2399 22.9191L56.7302 20.0874L59.2399 17.5366C61.4799 15.2604 61.7499 14.8896 61.7499 14.0889C61.7499 13.5179 61.5452 12.9544 61.1874 12.5401C60.6859 11.9591 60.2612 11.8351 57.2662 11.3964C55.4187 11.1259 53.8847 10.8784 53.8572 10.8464C53.8297 10.8146 53.1779 9.52961 52.4087 7.99086C51.6397 6.45186 50.7619 4.96136 50.4579 4.67836C49.7207 3.99136 48.2762 3.99411 47.5362 4.68361Z" fill="#C2294A"/>
<path fill-rule="evenodd" clip-rule="evenodd" d="M80.5362 4.68361C80.2292 4.96961 79.3719 6.48836 78.6312 8.05861C77.8907 9.62886 77.1924 10.9161 77.0797 10.9194C76.9672 10.9226 75.4124 11.1419 73.6249 11.4066C70.7422 11.8339 70.3114 11.9619 69.8124 12.5399C69.4547 12.9544 69.2499 13.5181 69.2499 14.0889C69.2499 14.8891 69.5192 15.2599 71.7449 17.5216L74.2399 20.0571L73.7467 22.9229C73.0919 26.7254 73.1072 27.2026 73.9089 28.0046C74.9129 29.0084 75.7602 28.8676 79.0802 27.1446L82.0072 25.6256L84.8992 27.1446C88.1984 28.8774 89.0729 29.0224 90.0909 28.0046C90.8987 27.1966 90.9144 26.6641 90.2399 22.9191L89.7302 20.0874L92.2399 17.5366C94.4799 15.2604 94.7499 14.8896 94.7499 14.0889C94.7499 13.5179 94.5452 12.9544 94.1874 12.5401C93.6859 11.9591 93.2612 11.8351 90.2662 11.3964C88.4187 11.1259 86.8847 10.8784 86.8572 10.8464C86.8297 10.8146 86.1779 9.52961 85.4087 7.99086C84.6397 6.45186 83.7619 4.96136 83.4579 4.67836C82.7207 3.99136 81.2762 3.99411 80.5362 4.68361Z" fill="#C2294A"/>
<path fill-rule="evenodd" clip-rule="evenodd" d="M113.536 4.68361C113.229 4.96961 112.372 6.48836 111.631 8.05861C110.891 9.62886 110.192 10.9161 110.08 10.9194C109.967 10.9226 108.412 11.1419 106.625 11.4066C103.742 11.8339 103.311 11.9619 102.812 12.5399C102.455 12.9544 102.25 13.5181 102.25 14.0889C102.25 14.8891 102.519 15.2599 104.745 17.5216L107.24 20.0571L106.747 22.9229C106.092 26.7254 106.107 27.2026 106.909 28.0046C107.913 29.0084 108.76 28.8676 112.08 27.1446L115.007 25.6256L117.899 27.1446C121.198 28.8774 122.073 29.0224 123.091 28.0046C123.899 27.1966 123.914 26.6641 123.24 22.9191L122.73 20.0874L125.24 17.5366C127.48 15.2604 127.75 14.8896 127.75 14.0889C127.75 13.5179 127.545 12.9544 127.187 12.5401C126.686 11.9591 126.261 11.8351 123.266 11.3964C121.419 11.1259 119.885 10.8784 119.857 10.8464C119.83 10.8146 119.178 9.52961 118.409 7.99086C117.64 6.45186 116.762 4.96136 116.458 4.67836C115.721 3.99136 114.276 3.99411 113.536 4.68361Z" fill="#C2294A"/>
<path fill-rule="evenodd" clip-rule="evenodd" d="M146.536 4.68361C146.229 4.96961 145.372 6.48836 144.631 8.05861C143.891 9.62886 143.192 10.9161 143.08 10.9194C142.967 10.9226 141.412 11.1419 139.625 11.4066C136.742 11.8339 136.311 11.9619 135.812 12.5399C135.455 12.9544 135.25 13.5181 135.25 14.0889C135.25 14.8891 135.519 15.2599 137.745 17.5216L140.24 20.0571L139.747 22.9229C139.092 26.7254 139.107 27.2026 139.909 28.0046C140.913 29.0084 141.76 28.8676 145.08 27.1446L148.007 25.6256L150.899 27.1446C154.198 28.8774 155.073 29.0224 156.091 28.0046C156.899 27.1966 156.914 26.6641 156.24 22.9191L155.73 20.0874L158.24 17.5366C160.48 15.2604 160.75 14.8896 160.75 14.0889C160.75 13.5179 160.545 12.9544 160.187 12.5401C159.686 11.9591 159.261 11.8351 156.266 11.3964C154.419 11.1259 152.885 10.8784 152.857 10.8464C152.83 10.8146 152.178 9.52961 151.409 7.99086C150.64 6.45186 149.762 4.96136 149.458 4.67836C148.721 3.99136 147.276 3.99411 146.536 4.68361Z" fill="#C2294A"/>
</svg>
