<svg width="63" height="63" viewBox="0 0 63 63" fill="none" xmlns="http://www.w3.org/2000/svg">
<rect x="0.536865" y="0.413574" width="62" height="62" rx="31" fill="#0D6EFD"/>
<g clip-path="url(#clip0_6_289)">
<path fill-rule="evenodd" clip-rule="evenodd" d="M30.2751 14.4898C28.8249 14.6403 27.244 15.1809 26.0028 15.9507C23.745 17.3511 21.9543 19.5991 21.222 21.9526C20.7974 23.3171 20.7128 24.2238 20.7127 27.4065L20.7126 29.8741L20.032 29.8969C19.4626 29.916 19.2892 29.9488 18.9715 30.0976C18.5236 30.3073 18.0886 30.7325 17.8572 31.1871L17.6912 31.5131V39.1166V46.7202L17.8653 47.0854C18.1559 47.6949 18.6948 48.1488 19.3277 48.3173C19.8607 48.4591 43.2131 48.4591 43.7461 48.3173C44.3789 48.1488 44.9178 47.6949 45.2084 47.0854L45.3826 46.7202V39.1166V31.5131L45.2166 31.1871C44.9851 30.7325 44.5502 30.3073 44.1023 30.0976C43.7845 29.9488 43.6111 29.916 43.0417 29.8969L42.3611 29.8741L42.361 27.4065C42.361 24.2238 42.2763 23.3171 41.8517 21.9526C41.1201 19.6012 39.3267 17.3498 37.0709 15.9507C35.1282 14.7458 32.7447 14.2334 30.2751 14.4898ZM30.3239 19.1671C28.0902 19.571 26.2191 21.3349 25.54 23.6772C25.416 24.1049 25.4031 24.3715 25.3787 27.0141L25.3523 29.8862H31.5369H37.7215L37.695 27.0141C37.666 23.8771 37.6638 23.8571 37.2261 22.7916C36.6575 21.4075 35.2218 20.0148 33.7975 19.4654C32.7957 19.0792 31.4499 18.9635 30.3239 19.1671Z" fill="white"/>
</g>
<defs>
<clipPath id="clip0_6_289">
<rect width="34" height="34" fill="white" transform="translate(14.5369 14.4136)"/>
</clipPath>
</defs>
</svg>
