<svg width="74" height="75" viewBox="0 0 74 75" fill="none" xmlns="http://www.w3.org/2000/svg">
<g filter="url(#filter0_d_144_703)">
<rect x="20.5" y="21" width="33" height="33" rx="16.5" stroke="#C2294A" shape-rendering="crispEdges"/>
<path fill-rule="evenodd" clip-rule="evenodd" d="M29.9749 33.1433C29.3532 33.5789 29.3887 33.6116 33.244 36.1529L36.8699 38.5429L40.563 36.1058C42.5943 34.7653 44.2562 33.6377 44.2562 33.5999C44.2562 33.5621 44.205 33.5628 44.1425 33.6015C44.08 33.6401 44.0288 33.5949 44.0288 33.501C44.0288 33.407 43.9152 33.2506 43.7762 33.1533C43.4058 32.8938 30.3446 32.8844 29.9749 33.1433ZM29.5945 37.9951V41.1858L29.8502 41.0187C29.9909 40.9267 31.0946 40.2243 32.303 39.4577C33.5114 38.691 34.4576 38.0252 34.4057 37.9781C34.3537 37.931 33.25 37.1977 31.9529 36.3484L29.5945 34.8044V37.9951ZM41.7187 36.3971C40.4168 37.2518 39.3563 37.9953 39.362 38.0494C39.3677 38.1035 40.4329 38.8219 41.729 39.6459L44.0857 41.1442L44.1172 39.5607C44.1345 38.6898 44.1345 37.272 44.1172 36.4101L44.0857 34.8431L41.7187 36.3971ZM32.4927 40.3762C29.5063 42.2662 29.4333 42.3352 29.9544 42.7792C30.1711 42.9637 30.669 42.9781 36.8318 42.9781C41.0192 42.9781 43.5536 42.9363 43.6867 42.865C43.8029 42.8029 43.9751 42.5975 44.0693 42.4086C44.1635 42.2196 44.2027 42.0884 44.1565 42.1171C44.1102 42.1456 42.7968 41.3608 41.2377 40.3729L38.4029 38.5768L37.7556 39.0157C37.3996 39.2572 37.0003 39.4548 36.8685 39.4548C36.7366 39.4548 36.3374 39.2575 35.9814 39.0164L35.3341 38.578L32.4927 40.3762Z" fill="#C2294A"/>
</g>
<defs>
<filter id="filter0_d_144_703" x="0" y="0.5" width="74" height="74" filterUnits="userSpaceOnUse" color-interpolation-filters="sRGB">
<feFlood flood-opacity="0" result="BackgroundImageFix"/>
<feColorMatrix in="SourceAlpha" type="matrix" values="0 0 0 0 0 0 0 0 0 0 0 0 0 0 0 0 0 0 127 0" result="hardAlpha"/>
<feOffset/>
<feGaussianBlur stdDeviation="10"/>
<feComposite in2="hardAlpha" operator="out"/>
<feColorMatrix type="matrix" values="0 0 0 0 0.760784 0 0 0 0 0.160784 0 0 0 0 0.290196 0 0 0 0.7 0"/>
<feBlend mode="normal" in2="BackgroundImageFix" result="effect1_dropShadow_144_703"/>
<feBlend mode="normal" in="SourceGraphic" in2="effect1_dropShadow_144_703" result="shape"/>
</filter>
</defs>
</svg>
