<svg width="66" height="66" viewBox="0 0 66 66" fill="none" xmlns="http://www.w3.org/2000/svg">
<path fill-rule="evenodd" clip-rule="evenodd" d="M15.6836 6.83369C14.746 7.16601 14.1755 7.5236 12.6603 8.72836C8.92127 11.7017 7.58052 13.3686 6.95223 15.8253C6.26606 18.508 6.83247 20.7944 9.54427 26.289C14.7347 36.8054 22.0129 45.2612 31.3243 51.5929C34.6507 53.855 38.7909 56.1399 42.5899 57.8106C45.6773 59.1683 46.3052 59.338 48.2754 59.3465C49.7751 59.3531 50.0505 59.318 50.8968 59.0122C51.4168 58.8243 52.1709 58.4779 52.5725 58.2425C54.1154 57.3381 58.0789 52.9101 58.8977 51.1758C59.1889 50.5591 59.2325 50.2982 59.2325 49.171C59.2325 47.9338 59.2107 47.8312 58.7496 46.8981C58.003 45.3875 57.1924 44.7201 53.7461 42.7787C45.1118 37.9145 44.5495 37.6478 42.9166 37.6433C40.5527 37.6367 39.2844 38.7896 38.4826 41.6738C38.2178 42.6261 37.7562 42.9666 36.8373 42.8876C36.1086 42.825 35.811 42.6293 33.6446 40.7882C30.3329 37.9738 27.5285 35.167 24.8943 32.0305C23.5039 30.3751 23.0743 29.7022 23.0743 29.1804C23.0743 28.2217 23.4584 27.8257 24.7043 27.5003C26.2728 27.0907 27.4767 26.2267 28.0764 25.0804C28.3665 24.5257 28.4182 24.2632 28.4208 23.332C28.4247 21.9679 28.1514 21.0861 27.2869 19.672C25.8032 17.2452 24.9218 15.676 23.6323 13.1661C21.8721 9.73988 21.3125 8.83664 20.4381 8.0097C19.0565 6.70298 17.2873 6.26535 15.6836 6.83369Z" fill="white"/>
</svg>
